<svg xmlns="http://www.w3.org/2000/svg" viewBox="0 0 380.08 255.32"><defs><style>.cls-1,.cls-8{fill:#dc4062;}.cls-1,.cls-19,.cls-2,.cls-20,.cls-21,.cls-22,.cls-23,.cls-24,.cls-3,.cls-4,.cls-5,.cls-6,.cls-7{stroke:#72272d;stroke-linecap:round;}.cls-1,.cls-18,.cls-19,.cls-2,.cls-20,.cls-21,.cls-22,.cls-23,.cls-24,.cls-3,.cls-4,.cls-5,.cls-6,.cls-7{stroke-linejoin:round;}.cls-1,.cls-10,.cls-11,.cls-12,.cls-13,.cls-14,.cls-15,.cls-16,.cls-17,.cls-18,.cls-19,.cls-2,.cls-20,.cls-21,.cls-22,.cls-23,.cls-3,.cls-4,.cls-5,.cls-6,.cls-7,.cls-8,.cls-9{stroke-width:0.5px;}.cls-2{fill:#c0c6d2;}.cls-3{fill:#b1b8c4;}.cls-4{fill:#6f7886;}.cls-5{fill:#e4d2cb;}.cls-6{fill:#cebbb6;}.cls-7{fill:#f6f0e7;}.cls-10,.cls-11,.cls-12,.cls-13,.cls-14,.cls-15,.cls-16,.cls-17,.cls-18,.cls-8,.cls-9{stroke:#8e2642;}.cls-10,.cls-11,.cls-12,.cls-13,.cls-14,.cls-15,.cls-16,.cls-17,.cls-8,.cls-9{stroke-miterlimit:10;}.cls-9{fill:#ffa200;}.cls-10{fill:#ffc100;}.cls-11{fill:#a2d21e;}.cls-12{fill:#0091ff;}.cls-13{fill:#bd42db;}.cls-14{fill:#43dbff;}.cls-15{fill:#9f5f6d;}.cls-17{fill:#ffaac9;}.cls-18,.cls-20{fill:#fff9f5;}.cls-19{fill:#ffa5be;}.cls-21{fill:#c97841;}.cls-22{fill:#72272d;}.cls-23{fill:none;}.cls-24{fill:#fff;stroke-width:0.38px;}</style></defs><g id="Layer_2" data-name="Layer 2"><g id="LOGO"><g id="MAIN_ITEMS" data-name="MAIN ITEMS"><g id="stairs"><polygon class="cls-1" points="21.71 162.66 64.64 137.87 75.37 144.07 32.44 168.85 21.71 162.66"/><polygon class="cls-1" points="10.98 168.85 53.91 144.07 64.64 150.27 21.71 175.05 10.98 168.85"/><polygon class="cls-2" points="0.25 175.05 43.17 150.27 53.91 156.46 10.98 181.25 0.25 175.05"/><polygon class="cls-3" points="53.91 218.42 54.1 156.46 97.02 131.68 96.83 193.64 53.91 218.42"/><polygon class="cls-2" points="32.44 156.46 75.37 131.68 86.1 137.87 43.17 162.66 32.44 156.46"/><polygon class="cls-4" points="53.91 156.46 53.91 218.42 43.18 212.22 32.44 206.03 21.71 199.83 10.98 193.63 0.25 187.44 0.25 175.05 10.98 181.24 10.98 168.85 21.71 175.05 21.71 162.65 32.44 168.85 32.44 156.46 43.18 162.65 43.18 150.26 53.91 156.46"/><polygon class="cls-2" points="43.17 150.27 86.1 125.48 96.83 131.68 53.91 156.46 43.17 150.27"/></g><g id="Text_isometric_" data-name="Text (isometric)"><g id="back_of_letters" data-name="back of letters"><path class="cls-5" d="M306.52,74.57l53.79,31.25.1.08L306.62,74.64Z"/><path class="cls-5" d="M311.18,59,365,90.21a4.1,4.1,0,0,1,.5.35L311.68,59.3A3.45,3.45,0,0,0,311.18,59Z"/><polygon class="cls-5" points="345.38 121.54 291.59 90.29 291.99 89.57 345.77 120.83 345.38 121.54"/><path class="cls-5" d="M291.59,90.29l.4.15,53.79,31.26-.4-.16Z"/><path class="cls-6" d="M351.86,110.09,298.08,78.83a5.4,5.4,0,0,0,2.74.62,7.38,7.38,0,0,0,3.74-1.1,7.11,7.11,0,0,0,1.59-1.27,2.46,2.46,0,0,0,.72-1.73.88.88,0,0,0-.25-.71l53.79,31.26a.91.91,0,0,1,.24.71,2.37,2.37,0,0,1-.71,1.72,7.15,7.15,0,0,1-1.59,1.28,7.48,7.48,0,0,1-3.74,1.1A5.57,5.57,0,0,1,351.86,110.09Z"/><polygon class="cls-6" points="345.77 120.83 291.99 89.57 297.9 78.72 351.69 109.98 345.77 120.83"/><path class="cls-5" d="M357.9,94.34,304.11,63.08a.71.71,0,0,0,.43.09,12.81,12.81,0,0,0,2.34-.34c1.11-.24,2.27-.44,3.49-.62a9.32,9.32,0,0,1,3.4.13,5.12,5.12,0,0,1,1.23.5L368.79,94.1a5.12,5.12,0,0,0-1.23-.5,9.32,9.32,0,0,0-3.4-.13c-1.22.17-2.39.38-3.49.62a15,15,0,0,1-2.35.34A.87.87,0,0,1,357.9,94.34Z"/><polygon class="cls-5" points="333.52 122.79 279.74 91.53 291.97 84.46 345.76 115.72 333.52 122.79"/><polygon class="cls-5" points="333.49 110.18 279.7 78.92 290.49 72.69 344.28 103.95 333.49 110.18"/><path class="cls-6" d="M371.92,79.24a9.36,9.36,0,0,0-5.59-.69,17.47,17.47,0,0,0-6.23,2.23,30.24,30.24,0,0,0-4.59,3.31,25.84,25.84,0,0,0-4.16,4.55,24.55,24.55,0,0,0-3,5.54,17,17,0,0,0-1.17,6.31,8.31,8.31,0,0,0,.67,3.68,4,4,0,0,0,1.58,1.76L295.62,74.68A4,4,0,0,1,294,72.91a8.37,8.37,0,0,1-.67-3.67,17,17,0,0,1,1.17-6.32,25,25,0,0,1,3-5.54,27,27,0,0,1,4.17-4.55,29.41,29.41,0,0,1,4.58-3.3,17.75,17.75,0,0,1,6.23-2.24,9.36,9.36,0,0,1,5.59.7Z"/><polygon class="cls-5" points="323.67 102.83 269.88 71.57 291.15 59.29 344.94 90.55 323.67 102.83"/><polygon class="cls-6" points="323.77 138.38 269.98 107.12 269.88 71.57 323.67 102.83 323.77 138.38"/><path class="cls-5" d="M310.6,21.57l53.79,31.26a4,4,0,0,1,.49.35L311.09,21.93A2.8,2.8,0,0,0,310.6,21.57Z"/><path class="cls-6" d="M351.28,72.71,297.49,41.45a5.52,5.52,0,0,0,2.74.63A7.55,7.55,0,0,0,304,41a7.15,7.15,0,0,0,1.59-1.28,2.46,2.46,0,0,0,.72-1.73.91.91,0,0,0-.24-.71l-.1-.07,53.78,31.26a.26.26,0,0,1,.1.07.91.91,0,0,1,.25.71,2.46,2.46,0,0,1-.72,1.73,6.68,6.68,0,0,1-1.6,1.27A7.4,7.4,0,0,1,354,73.34,5.52,5.52,0,0,1,351.28,72.71Z"/><polygon class="cls-6" points="344.79 84.17 291 52.91 297.32 41.34 351.11 72.6 344.79 84.17"/><path class="cls-5" d="M357.31,57,303.53,25.71a.77.77,0,0,0,.42.08,13.37,13.37,0,0,0,2.34-.33c1.1-.24,2.27-.45,3.5-.62a8.85,8.85,0,0,1,3.39.13,4.81,4.81,0,0,1,1.24.5L368.2,56.72a4.65,4.65,0,0,0-1.24-.49,9,9,0,0,0-3.38-.14c-1.23.18-2.4.38-3.51.62a13.44,13.44,0,0,1-2.33.34A.72.72,0,0,1,357.31,57Z"/><path class="cls-6" d="M371.32,41.87a9.31,9.31,0,0,0-5.58-.7,17.42,17.42,0,0,0-6.23,2.24,29.89,29.89,0,0,0-4.58,3.3,26.62,26.62,0,0,0-4.17,4.55,24.77,24.77,0,0,0-3,5.54,17.09,17.09,0,0,0-1.16,6.33,8.4,8.4,0,0,0,.66,3.66,4.17,4.17,0,0,0,1.6,1.78L295.05,37.31a4.08,4.08,0,0,1-1.6-1.77,8.34,8.34,0,0,1-.67-3.68,17,17,0,0,1,1.16-6.31A25.06,25.06,0,0,1,297,20a26.59,26.59,0,0,1,4.17-4.54,29.32,29.32,0,0,1,4.58-3.31A17.56,17.56,0,0,1,312,9.91a9.39,9.39,0,0,1,5.58.7Z"/><polygon class="cls-6" points="290.34 157.67 236.55 126.42 234.92 122.12 288.71 153.38 290.34 157.67"/><polygon class="cls-6" points="304.41 149.55 250.62 118.3 250.55 92.84 304.33 124.1 304.41 149.55"/><polygon class="cls-6" points="331.2 96.37 277.42 65.11 271.45 55.83 325.24 87.09 331.2 96.37"/><path class="cls-6" d="M330.45,73.27a4.17,4.17,0,0,1-.36,1.74,6.21,6.21,0,0,1-.91,1.43,6.71,6.71,0,0,1-1.17,1.1,12.13,12.13,0,0,1-1.15.77l-2,1.17L271,48.23l2-1.18a12.17,12.17,0,0,0,1.16-.77,6.64,6.64,0,0,0,1.16-1.1,6,6,0,0,0,.91-1.43,4,4,0,0,0,.36-1.74,2.17,2.17,0,0,0-.3-1.33,1.11,1.11,0,0,0-.29-.25l53.78,31.25a1,1,0,0,1,.29.26A2.09,2.09,0,0,1,330.45,73.27Z"/><polygon class="cls-5" points="281.34 148.49 227.55 117.23 232.58 114.33 286.37 145.58 281.34 148.49"/><polygon class="cls-5" points="296.7 118.4 242.91 87.14 268.52 72.36 322.31 103.61 296.7 118.4"/><polygon class="cls-5" points="296.73 128.49 242.94 97.23 242.91 87.14 296.7 118.4 296.73 128.49"/><polygon class="cls-5" points="266.35 171.52 212.57 140.26 213.52 136.9 267.31 168.16 266.35 171.52"/><polygon class="cls-6" points="286.37 145.58 232.58 114.33 230.07 106.97 283.85 138.23 286.37 145.58"/><polygon class="cls-6" points="314.88 105.79 261.09 74.53 260.99 38.99 314.78 70.25 314.88 105.79"/><polygon class="cls-5" points="296.67 106.35 242.88 75.09 255.12 68.03 308.9 99.28 296.67 106.35"/><path class="cls-5" d="M338,60.51a3.92,3.92,0,0,0-1.39-.5,8,8,0,0,0-4,.45,26.77,26.77,0,0,0-4.52,2.09l-13.33,7.69L261,39l13.33-7.68a26.75,26.75,0,0,1,4.51-2.1,8.17,8.17,0,0,1,4-.46,4.28,4.28,0,0,1,1.39.51Z"/><polygon class="cls-5" points="278.44 128.94 224.66 97.68 235.71 91.3 289.49 122.56 278.44 128.94"/><polygon class="cls-6" points="267.31 168.16 213.52 136.9 224.66 97.68 278.44 128.94 267.31 168.16"/><polygon class="cls-5" points="296.63 93.74 242.85 62.48 253.64 56.25 307.43 87.51 296.63 93.74"/><polygon class="cls-6" points="256.9 176.98 203.11 145.72 197.15 136.44 250.94 167.7 256.9 176.98"/><path class="cls-6" d="M256.15,153.88a4.1,4.1,0,0,1-.36,1.74,6.63,6.63,0,0,1-2.08,2.53,12.13,12.13,0,0,1-1.15.77l-2,1.18-53.79-31.26,2-1.18a12.13,12.13,0,0,0,1.15-.77,6.64,6.64,0,0,0,1.17-1.09,6.81,6.81,0,0,0,.91-1.43,4.17,4.17,0,0,0,.36-1.74,2.22,2.22,0,0,0-.3-1.34,1.33,1.33,0,0,0-.29-.25l53.78,31.26a.86.86,0,0,1,.29.25A2.11,2.11,0,0,1,256.15,153.88Z"/><polygon class="cls-5" points="286.81 86.39 233.02 55.13 254.3 42.85 308.09 74.11 286.81 86.39"/><polygon class="cls-6" points="286.91 121.94 233.13 90.68 233.02 55.13 286.81 86.39 286.91 121.94"/><path class="cls-5" d="M263.74,141.12a3.92,3.92,0,0,0-1.39-.5,8.15,8.15,0,0,0-4,.45,27.13,27.13,0,0,0-4.52,2.09l-13.33,7.7-53.78-31.25,13.32-7.7a26.92,26.92,0,0,1,4.53-2.1,8.1,8.1,0,0,1,4-.45,4.18,4.18,0,0,1,1.4.5Z"/><polygon class="cls-6" points="240.58 186.41 186.79 155.15 186.69 119.6 240.48 150.86 240.58 186.41"/><polygon class="cls-6" points="269.04 132.26 215.25 101 215.15 65.45 268.94 96.71 269.04 132.26"/><polygon class="cls-5" points="268.94 96.71 215.15 65.45 225.64 59.4 279.43 90.66 268.94 96.71"/><polygon class="cls-5" points="253.9 130.69 200.11 99.43 210.37 93.5 264.16 124.76 253.9 130.69"/><polygon class="cls-6" points="243.44 147.04 189.65 115.78 189.55 80.23 243.34 111.49 243.44 147.04"/><polygon class="cls-5" points="243.34 111.49 189.55 80.23 200.04 74.18 253.83 105.44 243.34 111.49"/><path class="cls-5" d="M182.38,141.67l53.79,31.26a3.89,3.89,0,0,0-1.72-.52,5.91,5.91,0,0,0-2.14.26l-53.79-31.26a6.16,6.16,0,0,1,2.15-.26A3.84,3.84,0,0,1,182.38,141.67Z"/><path class="cls-6" d="M227.65,182a3.76,3.76,0,0,1-.76,2.27,6.18,6.18,0,0,1-2,1.78l-3.1,1.79L168,156.58l3.1-1.79a6.18,6.18,0,0,0,2-1.78,3.81,3.81,0,0,0,.77-2.27,1.19,1.19,0,0,0-.33-1l-.14-.1,53.79,31.26.13.09A1.19,1.19,0,0,1,227.65,182Z"/><path class="cls-6" d="M227.05,169.93a3.69,3.69,0,0,1-.69,2.18,5.61,5.61,0,0,1-1.8,1.62l-2.79,1.61L168,144.08l2.79-1.61a5.68,5.68,0,0,0,1.79-1.62,3.63,3.63,0,0,0,.69-2.18,1,1,0,0,0-.41-1L226.64,169A1.05,1.05,0,0,1,227.05,169.93Z"/><path class="cls-5" d="M234.83,157.51a4.21,4.21,0,0,0-2.18-.51,11,11,0,0,0-3.9,1,34.62,34.62,0,0,0-4,2L212,167.28,158.24,136,171,128.68a35.44,35.44,0,0,1,4-2,11.21,11.21,0,0,1,3.91-1,4.11,4.11,0,0,1,2.17.52Z"/><polygon class="cls-6" points="212.13 202.83 158.35 171.57 158.25 136.02 212.03 167.28 212.13 202.83"/><polygon class="cls-5" points="197.38 201.39 143.59 170.13 155.83 163.07 209.62 194.32 197.38 201.39"/><polygon class="cls-5" points="197.34 188.78 143.56 157.52 154.35 151.29 208.14 182.55 197.34 188.78"/><polygon class="cls-6" points="187.62 216.98 133.84 185.72 133.73 150.18 187.52 181.43 187.62 216.98"/><polygon class="cls-5" points="187.52 181.43 133.73 150.18 155.01 137.89 208.8 169.15 187.52 181.43"/><path class="cls-6" d="M226.1,141.76a9.94,9.94,0,0,1-1.06,4.61,7.73,7.73,0,0,1-3,3.19c-1.21.7-2.16.84-2.86.43l-53.79-31.25c.7.4,1.65.26,2.86-.44a7.67,7.67,0,0,0,3-3.19,9.81,9.81,0,0,0,1.06-4.6l-.06-20.28L226,121.48Z"/><polygon class="cls-5" points="226.04 121.48 172.25 90.22 182.6 84.24 236.39 115.5 226.04 121.48"/><path class="cls-6" d="M210.92,162.34l-53.78-31.25a6,6,0,0,1-2.55-3.13,14.77,14.77,0,0,1-.89-5.41L153.64,101l53.79,31.26.06,21.58a14.9,14.9,0,0,0,.88,5.4A6,6,0,0,0,210.92,162.34Z"/><polygon class="cls-5" points="207.42 132.23 153.64 100.97 164.04 94.96 217.82 126.22 207.42 132.23"/><polygon class="cls-5" points="175.93 213.42 122.14 182.16 132.4 176.24 186.19 207.49 175.93 213.42"/><polygon class="cls-6" points="165.47 229.77 111.68 198.51 111.58 162.96 165.37 194.22 165.47 229.77"/><polygon class="cls-5" points="165.37 194.22 111.58 162.96 122.07 156.91 175.86 188.17 165.37 194.22"/><polygon class="cls-6" points="191.9 166.88 138.11 135.62 138.1 132.91 191.89 164.17 191.9 166.88"/><path class="cls-6" d="M184.34,169.78l-53.79-31.26c1.14.66,2.84.33,5.12-1a14.58,14.58,0,0,0,1.35-.91,6.44,6.44,0,0,0,1.09-1l53.79,31.26a6.44,6.44,0,0,1-1.09,1,14.58,14.58,0,0,1-1.35.91Q186,170.77,184.34,169.78Z"/><polygon class="cls-5" points="186.88 157.66 133.1 126.41 147.3 118.2 201.09 149.46 186.88 157.66"/><path class="cls-5" d="M140.28,120.63l53.79,31.26a2.71,2.71,0,0,1,.41.28L140.7,120.91A3.41,3.41,0,0,0,140.28,120.63Z"/><polygon class="cls-6" points="186.91 167.05 133.12 135.79 133.1 126.41 186.88 157.66 186.91 167.05"/><path class="cls-6" d="M200.53,140.27a8,8,0,0,0-5.31-.65,20.23,20.23,0,0,0-6.89,2.62,30.71,30.71,0,0,0-6.55,5.11,36.74,36.74,0,0,0-5.33,6.87,36.3,36.3,0,0,0-3.56,8,28.53,28.53,0,0,0-1.28,8.49,16.06,16.06,0,0,0,1.33,7,8,8,0,0,0,3.13,3.56L122.28,150a8,8,0,0,1-3.13-3.56,16.08,16.08,0,0,1-1.33-7,28.21,28.21,0,0,1,1.29-8.48,36,36,0,0,1,3.56-8A36.62,36.62,0,0,1,128,116.1a31,31,0,0,1,6.55-5.12,20.19,20.19,0,0,1,6.89-2.61,8,8,0,0,1,5.31.64Z"/><polygon class="cls-5" points="150.72 228.33 96.93 197.07 109.16 190.01 162.95 221.26 150.72 228.33"/><polygon class="cls-5" points="150.68 215.72 96.89 184.47 107.69 178.23 161.47 209.49 150.68 215.72"/><polygon class="cls-6" points="140.96 243.92 87.17 212.66 87.07 177.12 140.86 208.37 140.96 243.92"/><polygon class="cls-5" points="140.86 208.37 87.07 177.12 108.34 164.83 162.13 196.09 140.86 208.37"/><polygon class="cls-5" points="154.85 188.23 101.06 156.97 113.29 149.91 167.08 181.17 154.85 188.23"/><polygon class="cls-5" points="154.81 175.62 101.03 144.36 111.81 138.13 165.6 169.39 154.81 175.62"/><polygon class="cls-6" points="145.09 203.82 91.3 172.56 91.2 137.02 144.99 168.28 145.09 203.82"/><polygon class="cls-5" points="144.99 168.28 91.2 137.02 112.48 124.73 166.27 155.99 144.99 168.28"/><path class="cls-5" d="M124,241.46,70.23,210.2a3,3,0,0,0,2,.36,6.16,6.16,0,0,0,2.4-.85,11.15,11.15,0,0,0,3.08-2.63,15.94,15.94,0,0,0,2-3.19l53.79,31.26a15.84,15.84,0,0,1-2,3.19,11,11,0,0,1-3.07,2.63,6.32,6.32,0,0,1-2.4.85A3.07,3.07,0,0,1,124,241.46Z"/><path class="cls-5" d="M79.2,193.8,133,225.06a3.27,3.27,0,0,1,.48.35L79.67,194.16A2.67,2.67,0,0,0,79.2,193.8Z"/><path class="cls-6" d="M139.83,212.89a9.05,9.05,0,0,0-5.35-.51A20,20,0,0,0,127.7,215a31.36,31.36,0,0,0-6.57,5.13,36.17,36.17,0,0,0-5.35,6.88,37,37,0,0,0-3.56,8,28.25,28.25,0,0,0-1.29,8.48,15.75,15.75,0,0,0,1.33,6.91,8.41,8.41,0,0,0,3.28,3.68L61.75,222.77a8.42,8.42,0,0,1-3.28-3.68,15.87,15.87,0,0,1-1.33-6.9,28.8,28.8,0,0,1,1.29-8.48,36.59,36.59,0,0,1,3.57-8,37.18,37.18,0,0,1,5.34-6.88,31.69,31.69,0,0,1,6.57-5.13,20.24,20.24,0,0,1,6.78-2.58,9,9,0,0,1,5.35.52Z"/><polygon class="cls-6" points="128.6 213.34 74.81 182.08 68.85 172.8 122.64 204.06 128.6 213.34"/><path class="cls-6" d="M127.85,190.24a4.17,4.17,0,0,1-.36,1.74,6,6,0,0,1-.91,1.43,6.71,6.71,0,0,1-1.17,1.1,12.13,12.13,0,0,1-1.15.77l-2,1.18L68.43,165.2l2-1.18a12.17,12.17,0,0,0,1.16-.77,6.64,6.64,0,0,0,1.16-1.1,6,6,0,0,0,.91-1.43,4,4,0,0,0,.36-1.74,2.19,2.19,0,0,0-.3-1.33,1.11,1.11,0,0,0-.29-.25l53.78,31.26a.86.86,0,0,1,.29.25A2.09,2.09,0,0,1,127.85,190.24Z"/><path class="cls-5" d="M135.44,177.48a3.85,3.85,0,0,0-1.39-.5,8,8,0,0,0-4,.45,26,26,0,0,0-4.51,2.09l-13.33,7.7L58.39,156l13.33-7.68a26.4,26.4,0,0,1,4.51-2.1,8,8,0,0,1,4-.45,4.05,4.05,0,0,1,1.39.5Z"/><polygon class="cls-6" points="112.28 222.76 58.49 191.5 58.39 155.96 112.18 187.22 112.28 222.76"/></g><g id="front_of_letters" data-name="front of letters"><path class="cls-7" d="M360.1,80.78a17.81,17.81,0,0,1,6.23-2.24,9.48,9.48,0,0,1,5.58.7l-6.44,11.32a3.44,3.44,0,0,0-2.59-.79,6.26,6.26,0,0,0-2.75.8A7.3,7.3,0,0,0,358.3,92a2.4,2.4,0,0,0-.7,1.64q0,.8.72.78a15,15,0,0,0,2.35-.34c1.1-.24,2.27-.45,3.49-.62a9.32,9.32,0,0,1,3.4.13,4.67,4.67,0,0,1,2.56,1.67,6.58,6.58,0,0,1,1,4,18,18,0,0,1-1.1,6.25,25,25,0,0,1-2.92,5.65,27.26,27.26,0,0,1-4.08,4.72,26.17,26.17,0,0,1-4.63,3.46,24.53,24.53,0,0,1-3.69,1.75,17.55,17.55,0,0,1-3.49.92,13.86,13.86,0,0,1-3.18.13,8.69,8.69,0,0,1-2.27-.48l-.4-.16.39-.71L351.69,110a5.32,5.32,0,0,0,2.92.73,7.48,7.48,0,0,0,3.74-1.1,7.15,7.15,0,0,0,1.59-1.28,2.37,2.37,0,0,0,.71-1.72.91.91,0,0,0-.24-.71,1.31,1.31,0,0,0-.85-.24,8.84,8.84,0,0,0-1.68.14c-.72.11-1.62.27-2.69.5a17.06,17.06,0,0,1-3,.3,5.59,5.59,0,0,1-2.57-.56,4,4,0,0,1-1.77-1.87,8.15,8.15,0,0,1-.67-3.67,17,17,0,0,1,1.16-6.32,24.77,24.77,0,0,1,3-5.54,25.86,25.86,0,0,1,4.17-4.55A30.18,30.18,0,0,1,360.1,80.78Z"/><polygon class="cls-7" points="344.94 90.55 344.97 100.48 333.48 107.11 333.49 110.18 344.28 103.95 344.31 113.24 333.51 119.47 333.52 122.79 345.76 115.72 345.77 120.83 345.79 125.66 323.77 138.38 323.67 102.83 344.94 90.55"/><path class="cls-7" d="M359.51,43.41a17.49,17.49,0,0,1,6.23-2.24,9.31,9.31,0,0,1,5.58.7l-6.44,11.31a3.45,3.45,0,0,0-2.59-.79,6.34,6.34,0,0,0-2.75.81,7.53,7.53,0,0,0-1.84,1.43,2.48,2.48,0,0,0-.69,1.64c0,.53.24.8.73.78a13.44,13.44,0,0,0,2.33-.34c1.11-.24,2.28-.44,3.51-.62a9,9,0,0,1,3.38.14,4.61,4.61,0,0,1,2.57,1.66,6.46,6.46,0,0,1,1,4,17.76,17.76,0,0,1-1.1,6.24,25.38,25.38,0,0,1-2.91,5.65,28.22,28.22,0,0,1-4.08,4.73A27,27,0,0,1,357.83,82a25,25,0,0,1-3.69,1.75,17.06,17.06,0,0,1-3.51.92,14.34,14.34,0,0,1-3.17.14,8.72,8.72,0,0,1-2.67-.64l6.32-11.57a5.31,5.31,0,0,0,2.91.74,7.4,7.4,0,0,0,3.73-1.11,6.68,6.68,0,0,0,1.6-1.27,2.46,2.46,0,0,0,.72-1.73.91.91,0,0,0-.25-.71,1.32,1.32,0,0,0-.85-.24,10,10,0,0,0-1.69.14c-.71.12-1.6.28-2.69.5a16.07,16.07,0,0,1-3,.3,5.61,5.61,0,0,1-2.57-.55,4.13,4.13,0,0,1-1.77-1.87,8.34,8.34,0,0,1-.67-3.68,17,17,0,0,1,1.16-6.31,24.84,24.84,0,0,1,3-5.55,27.41,27.41,0,0,1,4.16-4.55A30.44,30.44,0,0,1,359.51,43.41Z"/><polygon class="cls-7" points="322.31 103.61 322.34 113.7 314.74 118.09 314.81 143.55 304.41 149.55 304.33 124.1 296.73 128.49 296.7 118.4 322.31 103.61"/><path class="cls-7" d="M335.25,79.59l7.89,9.88-11.94,6.9-6-9.28-.31.17,0,12.7-10.09,5.83-.1-35.54,13.32-7.7a26.41,26.41,0,0,1,4.52-2.09,8.16,8.16,0,0,1,4-.46,4.32,4.32,0,0,1,2.87,1.91,8.94,8.94,0,0,1,1.11,5,16.44,16.44,0,0,1-1.38,6.55A21.41,21.41,0,0,1,335.25,79.59ZM330.09,75a4.17,4.17,0,0,0,.36-1.74,2.14,2.14,0,0,0-.31-1.34,1,1,0,0,0-.78-.38,2.71,2.71,0,0,0-1,.25c-.38.17-.72.35-1,.53l-2.48,1.43,0,5.72,2-1.18a12.13,12.13,0,0,0,1.15-.77,6.64,6.64,0,0,0,1.17-1.09,6.81,6.81,0,0,0,.91-1.43"/><path class="cls-7" d="M289.49,122.56l12.16,28.58-11.31,6.53-1.63-4.29-9.83,5.68-1.52,6.11-8.52,4.91-2.49,1.44,1-3.36,11.13-39.22Zm-8.15,25.92,5-2.9-2.52-7.35-2.51,10.25"/><polygon class="cls-7" points="308.09 74.11 308.12 84.04 296.62 90.68 296.63 93.74 307.43 87.51 307.45 96.8 296.66 103.03 296.67 106.35 308.9 99.28 308.93 109.22 286.91 121.94 286.81 86.39 308.09 74.11"/><path class="cls-7" d="M261,160.2l7.89,9.88-2.49,1.44L256.9,177l-6-9.28-.31.18,0,12.7-10.08,5.82-.1-35.54,13.32-7.69a26.08,26.08,0,0,1,4.52-2.1,8.16,8.16,0,0,1,4-.45,4.27,4.27,0,0,1,2.87,1.9,9,9,0,0,1,1.11,5,16.51,16.51,0,0,1-1.38,6.55A21.5,21.5,0,0,1,261,160.2Zm-5.16-4.58a4.14,4.14,0,0,0,.36-1.74,2.09,2.09,0,0,0-.31-1.33,1,1,0,0,0-.78-.39,2.69,2.69,0,0,0-1,.26,10.08,10.08,0,0,0-1,.52l-2.48,1.43,0,5.72,2-1.17a12.13,12.13,0,0,0,1.15-.77,6.35,6.35,0,0,0,1.17-1.1,6.56,6.56,0,0,0,.91-1.43"/><polygon class="cls-7" points="279.43 90.66 279.53 126.2 269.04 132.26 268.94 96.71 279.43 90.66"/><polygon class="cls-7" points="253.83 105.44 253.9 130.69 264.16 124.76 264.19 135.06 243.44 147.04 243.34 111.49 253.83 105.44"/><path class="cls-7" d="M237.66,174.66a7,7,0,0,1,.48,2.74,14.59,14.59,0,0,1-1,5.49,20.08,20.08,0,0,1-2.7,4.77,23.7,23.7,0,0,1-3.84,4,33.09,33.09,0,0,1-4.43,3.09l-14,8.1-.1-35.55,12.72-7.34a34.62,34.62,0,0,1,4-2,11,11,0,0,1,3.91-1,3.87,3.87,0,0,1,3,1.15c.79.8,1.19,2.22,1.19,4.26a12.31,12.31,0,0,1-1.23,5.44,17.73,17.73,0,0,1-3.29,4.67v.15a5.91,5.91,0,0,1,2.14-.26,3.93,3.93,0,0,1,1.89.62A3.81,3.81,0,0,1,237.66,174.66Zm-10.77,9.61a3.76,3.76,0,0,0,.76-2.28,1.18,1.18,0,0,0-.33-1,1.23,1.23,0,0,0-.81-.26,2.87,2.87,0,0,0-1,.21,8.91,8.91,0,0,0-1,.5L221.79,183l0,4.82,3.1-1.79a6.3,6.3,0,0,0,2-1.78M221.76,171v4.36l2.79-1.61a5.7,5.7,0,0,0,1.8-1.61,3.71,3.71,0,0,0,.69-2.18q0-1-.75-1.08a3.51,3.51,0,0,0-2,.63L221.76,171"/><polygon class="cls-7" points="208.8 169.15 208.82 179.08 197.34 185.72 197.34 188.78 208.14 182.55 208.16 191.84 197.37 198.07 197.38 201.39 209.62 194.32 209.64 204.26 187.62 216.98 187.52 181.43 208.8 169.15"/><path class="cls-7" d="M236.39,115.5l.06,21.58a23.21,23.21,0,0,1-.92,6.45,26.48,26.48,0,0,1-2.76,6.35,30.15,30.15,0,0,1-10.91,10.62,18.81,18.81,0,0,1-6.32,2.49,7.13,7.13,0,0,1-4.49-.58,6,6,0,0,1-2.68-3.2,14.9,14.9,0,0,1-.88-5.4l-.07-21.58,10.41-6,0,20.28c0,1.7.37,2.83,1.08,3.38s1.73.43,3-.33a7.64,7.64,0,0,0,3-3.18,9.87,9.87,0,0,0,1.05-4.61L226,121.48Z"/><polygon class="cls-7" points="175.86 188.17 175.93 213.42 186.19 207.49 186.22 217.79 165.47 229.77 165.37 194.22 175.86 188.17"/><path class="cls-7" d="M188.33,142.24a20.44,20.44,0,0,1,6.89-2.62,8,8,0,0,1,5.31.65l-6.05,11.9a3.68,3.68,0,0,0-2.28-.78,6.78,6.78,0,0,0-3.23,1.09,10.91,10.91,0,0,0-2.47,2,15,15,0,0,0-2.11,2.87,17.09,17.09,0,0,0-1.48,3.45,12.31,12.31,0,0,0-.56,3.68c0,2.48.57,4.18,1.7,5.09s2.93.65,5.41-.78a14.58,14.58,0,0,0,1.35-.91,6.44,6.44,0,0,0,1.09-1v-2.71l-5,2.88,0-9.39,14.21-8.2,0,19.43a36.27,36.27,0,0,1-2.51,2.83c-.94,1-1.95,1.91-3,2.82s-2.18,1.8-3.34,2.66a38.88,38.88,0,0,1-3.5,2.3,20.09,20.09,0,0,1-6.8,2.61,8.85,8.85,0,0,1-5.42-.62,7.75,7.75,0,0,1-3.62-3.81,15.79,15.79,0,0,1-1.33-7,28.19,28.19,0,0,1,1.28-8.48,36.44,36.44,0,0,1,8.89-14.86A31,31,0,0,1,188.33,142.24Z"/><polygon class="cls-7" points="162.13 196.09 162.16 206.03 150.67 212.66 150.68 215.72 161.47 209.49 161.5 218.78 150.71 225.02 150.72 228.33 162.95 221.26 162.98 231.21 140.96 243.92 140.86 208.37 162.13 196.09"/><polygon class="cls-7" points="166.27 155.99 166.29 165.92 154.81 172.56 154.81 175.62 165.6 169.39 165.63 178.69 154.84 184.91 154.85 188.23 167.08 181.17 167.11 191.11 145.09 203.82 144.99 168.28 166.27 155.99"/><path class="cls-7" d="M127.7,215a20,20,0,0,1,6.78-2.58,8.93,8.93,0,0,1,5.34.52l-6.36,12.51a2.87,2.87,0,0,0-2.19-.72,6.87,6.87,0,0,0-2.93,1,10.73,10.73,0,0,0-2.44,1.94,12.94,12.94,0,0,0-2,2.67,14.2,14.2,0,0,0-1.33,3.21,12.72,12.72,0,0,0-.47,3.46,7,7,0,0,0,.51,2.85,3.56,3.56,0,0,0,1.36,1.6,3,3,0,0,0,2,.38,6.32,6.32,0,0,0,2.4-.85,11,11,0,0,0,3.07-2.63,15.84,15.84,0,0,0,2-3.19l6.41,5.1a35.64,35.64,0,0,1-5.15,6.82,31,31,0,0,1-6.94,5.45,18.59,18.59,0,0,1-6.58,2.44,8.86,8.86,0,0,1-5.36-.75,8.34,8.34,0,0,1-3.61-3.86,15.94,15.94,0,0,1-1.33-6.9,28.59,28.59,0,0,1,1.29-8.49,36.49,36.49,0,0,1,8.91-14.87A31.1,31.1,0,0,1,127.7,215Z"/><path class="cls-7" d="M132.65,196.56l7.89,9.88-11.94,6.9-6-9.28-.31.17,0,12.71-10.09,5.82-.1-35.54,13.32-7.7a26.41,26.41,0,0,1,4.52-2.09,8.28,8.28,0,0,1,4-.46,4.32,4.32,0,0,1,2.87,1.91,8.94,8.94,0,0,1,1.11,5,16.52,16.52,0,0,1-1.38,6.56A21.5,21.5,0,0,1,132.65,196.56ZM127.49,192a4.17,4.17,0,0,0,.36-1.74,2.09,2.09,0,0,0-.31-1.33,1,1,0,0,0-.78-.39,2.53,2.53,0,0,0-1,.26,10.08,10.08,0,0,0-1,.52l-2.48,1.43,0,5.72,2-1.18a12.13,12.13,0,0,0,1.15-.77,6.64,6.64,0,0,0,1.17-1.09,6.81,6.81,0,0,0,.91-1.43"/></g></g><g id="rainbow_runway" data-name="rainbow runway"><polygon class="cls-8" points="327.37 5.43 82.16 146.8 73.25 141.65 318.46 0.29 327.37 5.43"/><polygon class="cls-9" points="336.28 10.58 91.07 151.94 82.16 146.8 327.37 5.43 336.28 10.58"/><polygon class="cls-10" points="345.19 15.72 99.98 157.09 91.07 151.94 336.28 10.58 345.19 15.72"/><polygon class="cls-11" points="354.1 20.86 108.89 162.23 99.98 157.09 345.19 15.72 354.1 20.86"/><polygon class="cls-12" points="363.01 26.01 117.8 167.37 108.89 162.23 354.1 20.86 363.01 26.01"/><polygon class="cls-13" points="371.92 31.15 126.71 172.52 117.8 167.37 363.01 26.01 371.92 31.15"/><polygon class="cls-14" points="112.85 149.66 113.07 180.39 112.3 180.83 106.41 177.44 106.24 153.47 64.73 153.37 58.85 149.97 59.62 149.53 112.85 149.66"/><polygon class="cls-15" points="119.45 145.84 119.67 176.57 113.07 180.39 112.85 149.66 59.62 149.53 66.22 145.71 119.45 145.84"/><polygon class="cls-16" points="126.06 142.03 126.29 172.76 119.67 176.57 119.45 145.84 66.22 145.71 72.84 141.9 126.06 142.03"/><polygon class="cls-17" points="106.24 153.47 106.41 177.44 99.75 173.59 99.63 157.29 71.39 157.22 64.73 153.37 106.24 153.47"/><polygon class="cls-18" points="99.63 157.29 99.75 173.59 71.39 157.22 99.63 157.29"/></g><g id="drag_queen" data-name="drag queen"><path class="cls-19" d="M106.12,70.17a10,10,0,0,1-1.68,3l-.68-.8a8.74,8.74,0,0,0,2-4.33c.54-2.88-1.9-5.84-3.08-7.36s-3.41-.24-3.56-.16h0c-.66,1.73-2.85,7-5.73,9.91.58.94,1.43,2.1,2.1,1.89A1.59,1.59,0,0,0,96.1,72a7.39,7.39,0,0,0,3.05,1.26c.48,0,1,3.47,1,3.47l-.7.55c-1,.78-2.57,2.3-2.87,3.74h0c-7.15,5.74-17.19,10.93-26.19,8.68-15.73-3.94-6-12.86,2.28-14.84S90,63.25,90,63.25a55.63,55.63,0,0,1,5-5,3.13,3.13,0,0,1,4,.41,5,5,0,0,1,3.92,0,2.58,2.58,0,0,1,.86.69,12.18,12.18,0,0,1,2.3,5.06A12.6,12.6,0,0,1,106.12,70.17Z"/><path class="cls-20" d="M93.39,70.41a7.75,7.75,0,0,1-2,1.52"/><path class="cls-20" d="M99.34,59.93s-.07.21-.21.56"/><path class="cls-20" d="M96.1,72a1.36,1.36,0,0,0,.44-.59"/><path class="cls-20" d="M99.34,85.36l-1,2.17"/><path class="cls-21" d="M118.47,67.09c0,.12-4.9,11.34-4.9,11.34a16.7,16.7,0,0,1,1.19,2.07c-2.9,1.4-13,5.6-15.11-2.16a8.73,8.73,0,0,1-.22-1,.17.17,0,0,1,0-.07l.7-.55s-.49-3.47-1-3.47A7.39,7.39,0,0,1,96.1,72a1.59,1.59,0,0,1-.61.31c-.67.21-1.52-1-2.1-1.89,2.88-2.92,5.07-8.18,5.73-9.91h0c.15-.08,2.44-1.31,3.56.16s3.62,4.48,3.08,7.36a8.74,8.74,0,0,1-2,4.33l.68.8,1.41,1.71s2.64-1.06,4.36,0l3.76-7.3-7.85-2.93-.1-.21a12.18,12.18,0,0,0-2.3-5.06v0c.43.15,13.89,5.24,14.42,5.68S118.52,67,118.47,67.09Z"/><path class="cls-1" d="M115.88,99.11l-6.23,7.8-.77.14L101,100.11l0-6.84-2.6-5.74c-1.12,2.41-2.81,6.07-3.16,6.74-.53,1-10.13,13.67-10.73,14.16-1.61,1.33-.4-1.8-.68-2.46-1.88-.15-5.58.8-5.48.21a4.38,4.38,0,0,1,1.2-1.1c.52-.39,1.15-.84,1.78-1.28h0c1.46-1,2.91-2,2.91-2l7.23-9.57s4.79-9.6,5.12-11.26h0c.3-1.44,1.92-3,2.87-3.74a.17.17,0,0,0,0,.07,8.73,8.73,0,0,0,.22,1c1.15,4.18,4.6,4.89,8,4.44a25.27,25.27,0,0,0,7.12-2.28,5.47,5.47,0,0,1,.59,2,12,12,0,0,1-.75,3.94S115.69,99,115.88,99.11Z"/><path class="cls-21" d="M108.88,107.05c-1.45,2.66-5.2,13-8.76,15.8-.12.29-.31.72-.58,1.27h0c-1.34,2.74-4.3,8.32-6.7,12.79-2,3.68-3.56,6.6-3.56,6.6s.77,2.77,1,3.16-1.19,1.74-2.76.27-3.34-3.12-2.38-4.3a33.14,33.14,0,0,0,2.15-4.21c2.59-5.61,6.64-15,8.66-17.39,0,0,.38-1.59.89-3.82v0c1-4.36,2.5-11.17,2.55-13.31.09-3.27,1.61-3.79,1.61-3.79Z"/><path class="cls-22" d="M113.76,112.54a163.83,163.83,0,0,1-11.07,17.67c-2.33,3.22-5.93,5.33-9.85,6.71,2.4-4.47,5.36-10,6.7-12.79h0c.27-.55.46-1,.58-1.27,3.56-2.84,7.31-13.14,8.76-15.8l.77-.14C110.43,107.9,112.1,110.12,113.76,112.54Z"/><path class="cls-22" d="M101,100.11s-1.52.52-1.61,3.79c0,2.14-1.54,8.95-2.55,13.31v0c-.51,2.23-.89,3.82-.89,3.82-2,2.42-6.07,11.78-8.66,17.39a92.93,92.93,0,0,1-14.19,1.38c-4,.3-12.24-.17-16.21-4s9.5-11.08,15.79-13.58,19-17.3,22.54-22.57,3.16-12.13,3.16-12.13l2.6,5.74Z"/><path class="cls-21" d="M126.36,145.77c-1.08.3-4.2-2.2-4.64-3.23s-3-18.72-3.69-22.48a37.61,37.61,0,0,0-4.27-7.52c-1.66-2.42-3.33-4.64-4.11-5.63l6.23-7.8a49.31,49.31,0,0,1,2.06,4.74c1.79,4.44,4.16,10.93,4.69,14.63,1.3,2.54,3.24,23.61,3.24,23.61s.24.53.47,1.19h0C126.69,144.29,127,145.6,126.36,145.77Z"/><line class="cls-20" x1="103.71" y1="59.33" x2="103.71" y2="59.32"/><line class="cls-20" x1="79.49" y1="105.08" x2="82.69" y2="104.63"/><path class="cls-20" d="M81.29,103.8c.15,0,1.23-.15,1.23-.15"/><path class="cls-19" d="M89.71,153.33a9.78,9.78,0,0,1-4.15-3.62,16.09,16.09,0,0,1-1.47-2.66c-.12-.27-.18-.43-.18-.43a3,3,0,0,1,1.19-4c-1,1.18.81,2.82,2.38,4.3s3,.12,2.76-.27-1-3.16-1-3.16l3.84,7.89s.73,2.62-3.41,1.92"/><path class="cls-19" d="M127.79,151.67a10.54,10.54,0,0,1-5.57-3.58,14.25,14.25,0,0,1-1.42-1.88l-.06-.09c-.2-.36-.79-1.74,1-3.58.44,1,3.56,3.53,4.64,3.23.65-.17.33-1.48,0-2.48l4.42,5.84S132,151.55,127.79,151.67Z"/><path class="cls-19" d="M85.56,149.71v1.55a.76.76,0,0,1-.74.76.75.75,0,0,1-.73-.76v-4.21A16.09,16.09,0,0,0,85.56,149.71Z"/><path class="cls-19" d="M122.22,148.09v2.16a.74.74,0,1,1-1.48,0v-4.13l.06.09A14.25,14.25,0,0,0,122.22,148.09Z"/><path class="cls-23" d="M106.1,80.12a4.19,4.19,0,0,1,1.38,1.12,4.42,4.42,0,0,1,.78,1.44"/></g><g id="sparkles"><path class="cls-24" d="M119.78,52.88a8.6,8.6,0,0,0-3.9,6.72h0c0-2.47-1.74-3.46-3.89-2.22h0a8.58,8.58,0,0,0,3.89-6.71h0c0,2.46,1.75,3.46,3.9,2.21Z"/><path class="cls-24" d="M379.89,54A8.58,8.58,0,0,0,376,60.72h0c0-2.47-1.75-3.46-3.9-2.22h0a8.59,8.59,0,0,0,3.9-6.72h0c0,2.47,1.74,3.46,3.89,2.22Z"/><path class="cls-24" d="M115.93,234.26A8.56,8.56,0,0,0,112,241h0c0-2.47-1.74-3.46-3.9-2.22h0A8.56,8.56,0,0,0,112,232h0c0,2.47,1.74,3.46,3.9,2.22Z"/><path class="cls-24" d="M142.42,180a8.58,8.58,0,0,0-3.89,6.71h0c0-2.46-1.75-3.46-3.9-2.21h0a8.6,8.6,0,0,0,3.9-6.72h0c0,2.47,1.74,3.46,3.89,2.22Z"/><path class="cls-24" d="M234.84,109.21a8.59,8.59,0,0,0-3.9,6.71h0c0-2.46-1.74-3.46-3.89-2.21h0a8.59,8.59,0,0,0,3.89-6.72h0c0,2.47,1.75,3.46,3.9,2.22Z"/><path class="cls-24" d="M85.05,60.51a8.58,8.58,0,0,0-3.89,6.71h0c0-2.46-1.75-3.46-3.9-2.21h0a8.6,8.6,0,0,0,3.9-6.72h0c0,2.47,1.74,3.46,3.89,2.22Z"/><path class="cls-24" d="M366.9,34.94A8.58,8.58,0,0,0,363,41.65h0c0-2.46-1.75-3.46-3.9-2.21h0a8.6,8.6,0,0,0,3.9-6.72h0c0,2.47,1.74,3.46,3.89,2.22Z"/><path class="cls-24" d="M372.1,69.32A8.59,8.59,0,0,0,368.2,76h0c0-2.47-1.74-3.46-3.89-2.22h0a8.58,8.58,0,0,0,3.89-6.71h0c0,2.46,1.75,3.45,3.9,2.21Z"/><path class="cls-24" d="M81.16,87.57a8.56,8.56,0,0,0-3.9,6.72h0c0-2.47-1.74-3.46-3.9-2.22h0a8.56,8.56,0,0,0,3.9-6.71h0c0,2.46,1.74,3.45,3.9,2.21Z"/><path class="cls-24" d="M128.28,120.54a8.56,8.56,0,0,0-3.9,6.71h0c0-2.46-1.74-3.46-3.9-2.22h0a8.54,8.54,0,0,0,3.9-6.71h0c0,2.47,1.74,3.46,3.9,2.22Z"/></g></g></g></g></svg>