<svg xmlns="http://www.w3.org/2000/svg" viewBox="0 0 1009.29 424.85"><defs><style>.cls-1,.cls-8{fill:#dc4062;}.cls-1,.cls-19,.cls-2,.cls-20,.cls-21,.cls-22,.cls-23,.cls-24,.cls-3,.cls-4,.cls-5,.cls-6,.cls-7{stroke:#72272d;stroke-linecap:round;}.cls-1,.cls-18,.cls-19,.cls-2,.cls-20,.cls-21,.cls-22,.cls-23,.cls-24,.cls-3,.cls-4,.cls-5,.cls-6,.cls-7{stroke-linejoin:round;}.cls-1,.cls-10,.cls-11,.cls-12,.cls-13,.cls-14,.cls-15,.cls-16,.cls-17,.cls-18,.cls-19,.cls-2,.cls-20,.cls-21,.cls-22,.cls-23,.cls-3,.cls-4,.cls-5,.cls-6,.cls-7,.cls-8,.cls-9{stroke-width:0.5px;}.cls-2{fill:#c0c6d2;}.cls-3{fill:#b1b8c4;}.cls-4{fill:#6f7886;}.cls-5{fill:#e4d2cb;}.cls-6{fill:#cebbb6;}.cls-7{fill:#f6f0e7;}.cls-10,.cls-11,.cls-12,.cls-13,.cls-14,.cls-15,.cls-16,.cls-17,.cls-18,.cls-8,.cls-9{stroke:#8e2642;}.cls-10,.cls-11,.cls-12,.cls-13,.cls-14,.cls-15,.cls-16,.cls-17,.cls-8,.cls-9{stroke-miterlimit:10;}.cls-9{fill:#ffa200;}.cls-10{fill:#ffc100;}.cls-11{fill:#a2d21e;}.cls-12{fill:#0091ff;}.cls-13{fill:#bd42db;}.cls-14{fill:#43dbff;}.cls-15{fill:#9f5f6d;}.cls-17{fill:#ffaac9;}.cls-18,.cls-20{fill:#fff9f5;}.cls-19{fill:#ffa5be;}.cls-21{fill:#c97841;}.cls-22{fill:#72272d;}.cls-23{fill:none;}.cls-24{fill:#fff;stroke-width:0.38px;}</style></defs><g id="LOGO"><g id="MAIN_ITEMS" data-name="MAIN ITEMS"><g id="stairs"><polygon class="cls-1" points="336.29 247.41 379.21 222.62 389.94 228.82 347.02 253.6 336.29 247.41"/><polygon class="cls-1" points="325.56 253.6 368.48 228.82 379.21 235.01 336.29 259.8 325.56 253.6"/><polygon class="cls-2" points="314.83 259.8 357.75 235.01 368.48 241.21 325.56 265.99 314.83 259.8"/><polygon class="cls-3" points="368.48 303.17 368.67 241.21 411.6 216.43 411.4 278.39 368.48 303.17"/><polygon class="cls-2" points="347.02 241.21 389.94 216.43 400.67 222.62 357.75 247.41 347.02 241.21"/><polygon class="cls-4" points="368.49 241.21 368.49 303.17 357.76 296.97 347.02 290.78 336.29 284.58 325.56 278.38 314.83 272.19 314.83 259.8 325.56 265.99 325.56 253.6 336.29 259.8 336.29 247.4 347.02 253.6 347.02 241.21 357.76 247.4 357.76 235.01 368.49 241.21"/><polygon class="cls-2" points="357.75 235.01 400.67 210.23 411.4 216.43 368.48 241.21 357.75 235.01"/></g><g id="Text_isometric_" data-name="Text (isometric)"><g id="back_of_letters" data-name="back of letters"><path class="cls-5" d="M621.1,159.31l53.78,31.26.11.08L621.2,159.39Z"/><path class="cls-5" d="M625.76,143.7,679.55,175a3.36,3.36,0,0,1,.49.35l-53.78-31.26A4.1,4.1,0,0,0,625.76,143.7Z"/><polygon class="cls-5" points="659.96 206.29 606.17 175.03 606.56 174.32 660.35 205.57 659.96 206.29"/><path class="cls-5" d="M606.17,175l.39.16,53.79,31.26-.39-.16Z"/><path class="cls-6" d="M666.44,194.84l-53.79-31.26a5.57,5.57,0,0,0,2.75.62,7.34,7.34,0,0,0,3.73-1.1,7.22,7.22,0,0,0,1.6-1.27,2.45,2.45,0,0,0,.71-1.73.91.91,0,0,0-.24-.71L675,190.65a.89.89,0,0,1,.24.71,2.44,2.44,0,0,1-.72,1.72,6.73,6.73,0,0,1-1.59,1.28,7.45,7.45,0,0,1-3.74,1.1A5.53,5.53,0,0,1,666.44,194.84Z"/><polygon class="cls-6" points="660.35 205.57 606.56 174.32 612.48 163.47 666.27 194.73 660.35 205.57"/><path class="cls-5" d="M672.48,179.09l-53.79-31.26a.87.87,0,0,0,.42.09,14.76,14.76,0,0,0,2.34-.34c1.11-.24,2.27-.44,3.5-.62a9.32,9.32,0,0,1,3.4.13,5.12,5.12,0,0,1,1.23.5l53.78,31.26a4.47,4.47,0,0,0-1.23-.5,9.05,9.05,0,0,0-3.39-.13c-1.23.17-2.39.38-3.5.62a14.76,14.76,0,0,1-2.34.34A.87.87,0,0,1,672.48,179.09Z"/><polygon class="cls-5" points="648.1 207.53 594.31 176.28 606.55 169.21 660.34 200.47 648.1 207.53"/><polygon class="cls-5" points="648.06 194.93 594.28 163.67 605.07 157.44 658.86 188.69 648.06 194.93"/><path class="cls-6" d="M686.49,164a9.41,9.41,0,0,0-5.58-.7,17.62,17.62,0,0,0-6.23,2.24,29.56,29.56,0,0,0-4.59,3.31,26.19,26.19,0,0,0-4.17,4.54,25.67,25.67,0,0,0-3,5.55,17,17,0,0,0-1.17,6.31,8.6,8.6,0,0,0,.67,3.68,4.08,4.08,0,0,0,1.58,1.76l-53.79-31.26a4.08,4.08,0,0,1-1.58-1.76A8.44,8.44,0,0,1,608,154a17,17,0,0,1,1.17-6.31,24.92,24.92,0,0,1,3-5.54,26.69,26.69,0,0,1,4.17-4.55,30.24,30.24,0,0,1,4.59-3.31,17.66,17.66,0,0,1,6.23-2.23,9.37,9.37,0,0,1,5.59.69Z"/><polygon class="cls-5" points="638.24 187.58 584.45 156.32 605.73 144.04 659.52 175.3 638.24 187.58"/><polygon class="cls-6" points="638.34 223.12 584.55 191.87 584.45 156.32 638.24 187.58 638.34 223.12"/><path class="cls-5" d="M625.17,106.32,679,137.58a4.1,4.1,0,0,1,.5.35l-53.79-31.26A3.45,3.45,0,0,0,625.17,106.32Z"/><path class="cls-6" d="M665.85,157.46,612.07,126.2a5.51,5.51,0,0,0,2.73.63,7.44,7.44,0,0,0,3.74-1.11,6.68,6.68,0,0,0,1.6-1.27,2.46,2.46,0,0,0,.72-1.73.91.91,0,0,0-.25-.71l-.1-.07,53.79,31.25.1.08a1,1,0,0,1,.25.71,2.42,2.42,0,0,1-.72,1.72,6.88,6.88,0,0,1-1.6,1.28,7.42,7.42,0,0,1-3.74,1.1A5.55,5.55,0,0,1,665.85,157.46Z"/><polygon class="cls-6" points="659.37 168.92 605.58 137.66 611.89 126.09 665.68 157.35 659.37 168.92"/><path class="cls-5" d="M671.89,141.71,618.1,110.45a.71.71,0,0,0,.43.09,12.51,12.51,0,0,0,2.33-.34c1.11-.24,2.28-.44,3.51-.62a9,9,0,0,1,3.38.14,4.67,4.67,0,0,1,1.24.5l53.79,31.25a4.65,4.65,0,0,0-1.24-.49,9,9,0,0,0-3.39-.14c-1.22.17-2.39.38-3.5.62a14.76,14.76,0,0,1-2.34.34A.69.69,0,0,1,671.89,141.71Z"/><path class="cls-6" d="M685.9,126.62a9.33,9.33,0,0,0-5.59-.7,17.56,17.56,0,0,0-6.23,2.24,29.83,29.83,0,0,0-4.57,3.3,26.62,26.62,0,0,0-4.17,4.55,24.77,24.77,0,0,0-3,5.54,17.05,17.05,0,0,0-1.16,6.33,8.4,8.4,0,0,0,.66,3.66,4.17,4.17,0,0,0,1.6,1.78l-53.78-31.26a4,4,0,0,1-1.6-1.78,8.26,8.26,0,0,1-.67-3.67,17,17,0,0,1,1.16-6.31,24.84,24.84,0,0,1,3-5.55,27,27,0,0,1,4.17-4.55,30.32,30.32,0,0,1,4.57-3.3,17.61,17.61,0,0,1,6.24-2.24,9.31,9.31,0,0,1,5.58.7Z"/><polygon class="cls-6" points="604.92 242.42 551.13 211.16 549.5 206.87 603.28 238.13 604.92 242.42"/><polygon class="cls-6" points="618.98 234.3 565.2 203.04 565.12 177.59 618.91 208.85 618.98 234.3"/><polygon class="cls-6" points="645.78 181.11 591.99 149.86 586.02 140.58 639.81 171.83 645.78 181.11"/><path class="cls-6" d="M645,158a4.17,4.17,0,0,1-.36,1.74,6.21,6.21,0,0,1-.91,1.43,6.71,6.71,0,0,1-1.17,1.1,12.13,12.13,0,0,1-1.15.77l-2,1.17L585.61,133l2-1.18a11,11,0,0,0,1.15-.77,6.35,6.35,0,0,0,1.17-1.1,6,6,0,0,0,.91-1.43,4,4,0,0,0,.36-1.74,2.17,2.17,0,0,0-.3-1.33,1.11,1.11,0,0,0-.29-.25l53.78,31.25a1,1,0,0,1,.29.26A2.09,2.09,0,0,1,645,158Z"/><polygon class="cls-5" points="595.92 233.23 542.13 201.97 547.16 199.07 600.95 230.33 595.92 233.23"/><polygon class="cls-5" points="611.28 203.15 557.49 171.89 583.1 157.1 636.88 188.36 611.28 203.15"/><polygon class="cls-5" points="611.31 213.24 557.52 181.98 557.49 171.89 611.28 203.15 611.31 213.24"/><polygon class="cls-5" points="580.93 256.27 527.14 225.01 528.1 221.65 581.88 252.91 580.93 256.27"/><polygon class="cls-6" points="600.95 230.33 547.16 199.07 544.64 191.72 598.43 222.98 600.95 230.33"/><polygon class="cls-6" points="629.45 190.54 575.67 159.28 575.57 123.74 629.35 154.99 629.45 190.54"/><polygon class="cls-5" points="611.25 191.1 557.46 159.84 569.69 152.77 623.48 184.03 611.25 191.1"/><path class="cls-5" d="M652.62,145.26a3.9,3.9,0,0,0-1.4-.5,7.88,7.88,0,0,0-4,.45,26.85,26.85,0,0,0-4.53,2.09L629.35,155l-53.78-31.26L588.89,116a26.41,26.41,0,0,1,4.52-2.09,8.13,8.13,0,0,1,4-.46,4,4,0,0,1,1.4.51Z"/><polygon class="cls-5" points="593.02 213.69 539.23 182.43 550.28 176.05 604.07 207.31 593.02 213.69"/><polygon class="cls-6" points="581.88 252.91 528.1 221.65 539.23 182.43 593.02 213.69 581.88 252.91"/><polygon class="cls-5" points="611.21 178.49 557.42 147.23 568.22 141 622 172.26 611.21 178.49"/><polygon class="cls-6" points="571.47 261.73 517.69 230.47 511.73 221.19 565.51 252.45 571.47 261.73"/><path class="cls-6" d="M570.73,238.62a4.1,4.1,0,0,1-.36,1.74,6.63,6.63,0,0,1-2.08,2.53,12.13,12.13,0,0,1-1.15.77l-2,1.18-53.8-31.26,2.05-1.18a12.13,12.13,0,0,0,1.15-.77,7,7,0,0,0,1.17-1.09,6.81,6.81,0,0,0,.91-1.43,4.17,4.17,0,0,0,.36-1.74,2.22,2.22,0,0,0-.3-1.34,1.33,1.33,0,0,0-.29-.25L570.13,237a.86.86,0,0,1,.29.25A2.11,2.11,0,0,1,570.73,238.62Z"/><polygon class="cls-5" points="601.39 171.14 547.6 139.88 568.88 127.6 622.67 158.85 601.39 171.14"/><polygon class="cls-6" points="601.49 206.69 547.7 175.43 547.6 139.88 601.39 171.14 601.49 206.69"/><path class="cls-5" d="M578.32,225.87a3.92,3.92,0,0,0-1.39-.5,8.13,8.13,0,0,0-4,.45,26.85,26.85,0,0,0-4.53,2.09l-13.32,7.7-53.79-31.26,13.33-7.69a25.74,25.74,0,0,1,4.52-2.1,8,8,0,0,1,4-.45,4.13,4.13,0,0,1,1.39.5Z"/><polygon class="cls-6" points="555.15 271.15 501.37 239.9 501.27 204.35 555.05 235.61 555.15 271.15"/><polygon class="cls-6" points="583.62 217 529.83 185.75 529.73 150.2 583.51 181.46 583.62 217"/><polygon class="cls-5" points="583.51 181.46 529.73 150.2 540.21 144.15 594 175.4 583.51 181.46"/><polygon class="cls-5" points="568.47 215.44 514.69 184.18 524.95 178.25 578.74 209.51 568.47 215.44"/><polygon class="cls-6" points="558.02 231.78 504.23 200.53 504.13 164.98 557.92 196.24 558.02 231.78"/><polygon class="cls-5" points="557.92 196.24 504.13 164.98 514.61 158.93 568.4 190.18 557.92 196.24"/><path class="cls-5" d="M497,226.42l53.79,31.26a3.81,3.81,0,0,0-1.71-.52,6,6,0,0,0-2.15.26L493.1,226.16a5.88,5.88,0,0,1,2.14-.26A3.81,3.81,0,0,1,497,226.42Z"/><path class="cls-6" d="M542.23,266.74a3.76,3.76,0,0,1-.76,2.27,6.18,6.18,0,0,1-2,1.78l-3.1,1.79L482.6,241.32l3.1-1.79a6.18,6.18,0,0,0,2-1.78,3.81,3.81,0,0,0,.77-2.27,1.19,1.19,0,0,0-.33-1l-.14-.1,53.79,31.26.13.09A1.19,1.19,0,0,1,542.23,266.74Z"/><path class="cls-6" d="M541.63,254.67a3.69,3.69,0,0,1-.69,2.18,5.61,5.61,0,0,1-1.8,1.62l-2.79,1.61-53.78-31.26,2.79-1.61a5.68,5.68,0,0,0,1.79-1.62,3.63,3.63,0,0,0,.69-2.18,1,1,0,0,0-.41-1l53.79,31.25A1.05,1.05,0,0,1,541.63,254.67Z"/><path class="cls-5" d="M549.4,242.26a4.06,4.06,0,0,0-2.17-.51,11.13,11.13,0,0,0-3.9.95,37.42,37.42,0,0,0-4,2L526.61,252l-53.79-31.25,12.72-7.34a34.62,34.62,0,0,1,4-2,11,11,0,0,1,3.91-1,4.11,4.11,0,0,1,2.17.52Z"/><polygon class="cls-6" points="526.71 287.57 472.92 256.32 472.82 220.77 526.61 252.03 526.71 287.57"/><polygon class="cls-5" points="511.96 286.14 458.17 254.88 470.4 247.81 524.19 279.07 511.96 286.14"/><polygon class="cls-5" points="511.92 273.53 458.13 242.27 468.93 236.04 522.71 267.3 511.92 273.53"/><polygon class="cls-6" points="502.2 301.73 448.41 270.47 448.31 234.92 502.1 266.18 502.2 301.73"/><polygon class="cls-5" points="502.1 266.18 448.31 234.92 469.58 222.64 523.37 253.9 502.1 266.18"/><path class="cls-6" d="M540.68,226.5a9.94,9.94,0,0,1-1.06,4.61,7.73,7.73,0,0,1-3,3.19c-1.21.7-2.16.84-2.86.43l-53.79-31.25c.7.4,1.65.26,2.86-.44a7.67,7.67,0,0,0,3-3.19,9.81,9.81,0,0,0,1.06-4.6L486.83,175l53.79,31.25Z"/><polygon class="cls-5" points="540.61 206.23 486.83 174.97 497.18 168.99 550.97 200.25 540.61 206.23"/><path class="cls-6" d="M525.5,247.08l-53.78-31.25a6,6,0,0,1-2.55-3.13,14.77,14.77,0,0,1-.89-5.41l-.06-21.58L522,217l.06,21.58A14.9,14.9,0,0,0,523,244,6,6,0,0,0,525.5,247.08Z"/><polygon class="cls-5" points="522 216.97 468.21 185.72 478.61 179.71 532.4 210.97 522 216.97"/><polygon class="cls-5" points="490.5 298.17 436.72 266.91 446.98 260.98 500.77 292.24 490.5 298.17"/><polygon class="cls-6" points="480.05 314.52 426.26 283.26 426.16 247.71 479.95 278.97 480.05 314.52"/><polygon class="cls-5" points="479.95 278.97 426.16 247.71 436.64 241.66 490.43 272.92 479.95 278.97"/><polygon class="cls-6" points="506.48 251.63 452.69 220.37 452.68 217.66 506.47 248.92 506.48 251.63"/><path class="cls-6" d="M498.92,254.53l-53.79-31.26c1.13.66,2.84.33,5.11-1a12.32,12.32,0,0,0,1.35-.91,6.17,6.17,0,0,0,1.1-1l53.78,31.26a6.07,6.07,0,0,1-1.09,1,13.35,13.35,0,0,1-1.35.91C501.76,254.86,500.05,255.19,498.92,254.53Z"/><polygon class="cls-5" points="501.46 242.41 447.67 211.15 461.87 202.95 515.66 234.21 501.46 242.41"/><path class="cls-5" d="M454.86,205.38l53.79,31.25c.14.09.28.18.41.28l-53.79-31.25A2.71,2.71,0,0,0,454.86,205.38Z"/><polygon class="cls-6" points="501.49 251.79 447.7 220.54 447.67 211.15 501.46 242.41 501.49 251.79"/><path class="cls-6" d="M515.11,225a8,8,0,0,0-5.32-.65A20.38,20.38,0,0,0,502.9,227a31,31,0,0,0-6.55,5.11A36.45,36.45,0,0,0,487.47,247a28.32,28.32,0,0,0-1.29,8.49,15.85,15.85,0,0,0,1.34,7,7.89,7.89,0,0,0,3.13,3.57l-53.79-31.26a8,8,0,0,1-3.13-3.56,15.92,15.92,0,0,1-1.34-7,27.91,27.91,0,0,1,1.3-8.48,35.84,35.84,0,0,1,3.56-8,36.59,36.59,0,0,1,5.32-6.87,31,31,0,0,1,6.55-5.11,20.47,20.47,0,0,1,6.88-2.62,8,8,0,0,1,5.32.65Z"/><polygon class="cls-5" points="465.29 313.08 411.5 281.82 423.74 274.75 477.53 306.01 465.29 313.08"/><polygon class="cls-5" points="465.26 300.47 411.47 269.21 422.26 262.98 476.05 294.24 465.26 300.47"/><polygon class="cls-6" points="455.54 328.67 401.75 297.41 401.65 261.86 455.44 293.12 455.54 328.67"/><polygon class="cls-5" points="455.44 293.12 401.65 261.86 422.92 249.58 476.71 280.84 455.44 293.12"/><polygon class="cls-5" points="469.43 272.98 415.64 241.72 427.87 234.66 481.65 265.91 469.43 272.98"/><polygon class="cls-5" points="469.39 260.37 415.6 229.11 426.39 222.88 480.18 254.14 469.39 260.37"/><polygon class="cls-6" points="459.66 288.57 405.88 257.31 405.77 221.76 459.56 253.02 459.66 288.57"/><polygon class="cls-5" points="459.56 253.02 405.77 221.76 427.05 209.48 480.84 240.74 459.56 253.02"/><path class="cls-5" d="M438.59,326.21,384.81,295a3.05,3.05,0,0,0,2,.36,6.21,6.21,0,0,0,2.4-.85,11,11,0,0,0,3.08-2.63,15.84,15.84,0,0,0,2-3.19l53.79,31.26a15.51,15.51,0,0,1-2,3.18,11,11,0,0,1-3.08,2.63,6.08,6.08,0,0,1-2.4.86A3.08,3.08,0,0,1,438.59,326.21Z"/><path class="cls-5" d="M393.77,278.55l53.79,31.26a3.27,3.27,0,0,1,.48.35L394.25,278.9A3.27,3.27,0,0,0,393.77,278.55Z"/><path class="cls-6" d="M454.4,297.64a9,9,0,0,0-5.35-.51,20,20,0,0,0-6.77,2.58,31.1,31.1,0,0,0-6.57,5.13,36.2,36.2,0,0,0-8.91,14.87,28.21,28.21,0,0,0-1.29,8.48,15.81,15.81,0,0,0,1.33,6.91,8.43,8.43,0,0,0,3.27,3.67l-53.78-31.25a8.36,8.36,0,0,1-3.28-3.68,15.89,15.89,0,0,1-1.33-6.91,28.79,28.79,0,0,1,1.29-8.47,35.89,35.89,0,0,1,3.56-8,36.9,36.9,0,0,1,5.35-6.88,31.1,31.1,0,0,1,6.57-5.13,20,20,0,0,1,6.77-2.58,9,9,0,0,1,5.35.52Z"/><polygon class="cls-6" points="443.17 298.09 389.38 266.83 383.42 257.55 437.21 288.81 443.17 298.09"/><path class="cls-6" d="M442.43,275a4.33,4.33,0,0,1-.36,1.74,6,6,0,0,1-.91,1.43,6.71,6.71,0,0,1-1.17,1.1,12.13,12.13,0,0,1-1.15.77l-2,1.18L383,249.94l2-1.18a12.17,12.17,0,0,0,1.16-.77,6.64,6.64,0,0,0,1.16-1.1,6,6,0,0,0,.91-1.43,4,4,0,0,0,.36-1.74,2.19,2.19,0,0,0-.3-1.33,1.11,1.11,0,0,0-.29-.25l53.78,31.26a.86.86,0,0,1,.29.25A2.09,2.09,0,0,1,442.43,275Z"/><path class="cls-5" d="M450,262.23a3.84,3.84,0,0,0-1.4-.5,7.89,7.89,0,0,0-4,.45,26.41,26.41,0,0,0-4.52,2.09L426.76,272,373,240.7,386.29,233a26.41,26.41,0,0,1,4.52-2.09,8,8,0,0,1,4-.45,3.84,3.84,0,0,1,1.4.5Z"/><polygon class="cls-6" points="426.85 307.51 373.07 276.25 372.96 240.71 426.75 271.96 426.85 307.51"/></g><g id="front_of_letters" data-name="front of letters"><path class="cls-7" d="M674.68,165.53a17.62,17.62,0,0,1,6.23-2.24,9.49,9.49,0,0,1,5.58.7L680,175.31a3.45,3.45,0,0,0-2.58-.8,6.4,6.4,0,0,0-2.75.81,7.55,7.55,0,0,0-1.84,1.44,2.42,2.42,0,0,0-.7,1.64c0,.53.25.79.73.78a14.76,14.76,0,0,0,2.34-.34c1.11-.24,2.27-.45,3.5-.62a9.05,9.05,0,0,1,3.39.13A4.68,4.68,0,0,1,684.7,180a6.53,6.53,0,0,1,1,4,18,18,0,0,1-1.09,6.25A25,25,0,0,1,681.7,196a28.15,28.15,0,0,1-4.08,4.72,26,26,0,0,1-4.63,3.45,24.12,24.12,0,0,1-3.69,1.76,17.64,17.64,0,0,1-3.5.92,14.36,14.36,0,0,1-3.17.13,8.86,8.86,0,0,1-2.28-.48l-.39-.16.39-.72,5.92-10.84a5.31,5.31,0,0,0,2.91.73,7.45,7.45,0,0,0,3.74-1.1,6.73,6.73,0,0,0,1.59-1.28,2.44,2.44,0,0,0,.72-1.72.89.89,0,0,0-.24-.71,1.32,1.32,0,0,0-.86-.24,8.9,8.9,0,0,0-1.68.14c-.71.11-1.61.27-2.69.49a16.21,16.21,0,0,1-3,.31,5.54,5.54,0,0,1-2.56-.56,4,4,0,0,1-1.78-1.87,8.3,8.3,0,0,1-.66-3.67,17,17,0,0,1,1.16-6.32,25,25,0,0,1,3-5.55,27,27,0,0,1,4.17-4.55A30.85,30.85,0,0,1,674.68,165.53Z"/><polygon class="cls-7" points="659.52 175.3 659.54 185.23 648.05 191.86 648.06 194.93 658.86 188.69 658.88 197.99 648.09 204.22 648.1 207.53 660.34 200.47 660.35 205.57 660.36 210.41 638.34 223.12 638.24 187.58 659.52 175.3"/><path class="cls-7" d="M674.09,128.16a17.42,17.42,0,0,1,6.23-2.24,9.32,9.32,0,0,1,5.58.7l-6.44,11.31a3.44,3.44,0,0,0-2.59-.79,6.21,6.21,0,0,0-2.76.81,7.66,7.66,0,0,0-1.83,1.43,2.48,2.48,0,0,0-.69,1.64c0,.53.24.8.72.78a14.76,14.76,0,0,0,2.34-.34c1.11-.24,2.28-.45,3.5-.62a9,9,0,0,1,3.39.14,4.59,4.59,0,0,1,2.57,1.66,6.58,6.58,0,0,1,1,4,18,18,0,0,1-1.1,6.25,25.41,25.41,0,0,1-2.92,5.65,27.64,27.64,0,0,1-4.07,4.72,26.6,26.6,0,0,1-4.64,3.46,24.53,24.53,0,0,1-3.69,1.75,17,17,0,0,1-3.5.92,13.76,13.76,0,0,1-3.17.13,8.44,8.44,0,0,1-2.67-.63l6.31-11.57a5.31,5.31,0,0,0,2.91.73,7.42,7.42,0,0,0,3.74-1.1,6.88,6.88,0,0,0,1.6-1.28,2.42,2.42,0,0,0,.72-1.72,1,1,0,0,0-.25-.71,1.31,1.31,0,0,0-.85-.24,9.06,9.06,0,0,0-1.69.14c-.72.11-1.61.27-2.69.5a16.09,16.09,0,0,1-3,.3,5.57,5.57,0,0,1-2.56-.56,4.05,4.05,0,0,1-1.78-1.87,8.58,8.58,0,0,1-.67-3.67,17.16,17.16,0,0,1,1.17-6.31,24.44,24.44,0,0,1,3-5.55,26.2,26.2,0,0,1,4.16-4.55A30,30,0,0,1,674.09,128.16Z"/><polygon class="cls-7" points="636.88 188.36 636.91 198.45 629.31 202.84 629.38 228.3 618.98 234.3 618.91 208.85 611.31 213.24 611.28 203.15 636.88 188.36"/><path class="cls-7" d="M649.83,164.34l7.89,9.88-11.94,6.89-6-9.28-.3.18,0,12.7-10.1,5.83-.1-35.55,13.33-7.69a26.41,26.41,0,0,1,4.52-2.09,8.12,8.12,0,0,1,4-.46,4.31,4.31,0,0,1,2.88,1.91,9,9,0,0,1,1.11,5,16.79,16.79,0,0,1-1.38,6.55A21.62,21.62,0,0,1,649.83,164.34Zm-5.17-4.58A3.88,3.88,0,0,0,645,158a2.2,2.2,0,0,0-.3-1.34,1,1,0,0,0-.78-.38,2.71,2.71,0,0,0-1.05.25,9.89,9.89,0,0,0-1,.53l-2.48,1.43,0,5.72,2-1.18a12.17,12.17,0,0,0,1.16-.77,6.59,6.59,0,0,0,1.16-1.09,6.43,6.43,0,0,0,.91-1.43"/><path class="cls-7" d="M604.07,207.31l12.16,28.58-11.31,6.53-1.64-4.29-9.83,5.68-1.51,6.1-8.52,4.92-2.49,1.44,1-3.36L593,213.69Zm-8.15,25.92,5-2.9L598.43,223l-2.51,10.25"/><polygon class="cls-7" points="622.67 158.85 622.7 168.79 611.2 175.42 611.21 178.49 622 172.26 622.03 181.55 611.24 187.78 611.25 191.1 623.48 184.03 623.51 193.97 601.49 206.69 601.39 171.14 622.67 158.85"/><path class="cls-7" d="M575.53,245l7.89,9.88-2.49,1.44-9.46,5.46-6-9.28-.31.17,0,12.71-10.09,5.82-.1-35.54,13.33-7.7a26.41,26.41,0,0,1,4.52-2.09,8.24,8.24,0,0,1,4-.46,4.31,4.31,0,0,1,2.88,1.91,9,9,0,0,1,1.11,5,16.87,16.87,0,0,1-1.38,6.56A21.72,21.72,0,0,1,575.53,245Zm-5.17-4.58a4.17,4.17,0,0,0,.37-1.74,2.23,2.23,0,0,0-.31-1.33,1,1,0,0,0-.78-.39,2.61,2.61,0,0,0-1,.26,11.2,11.2,0,0,0-1,.52l-2.47,1.43,0,5.72,2-1.17c.34-.21.72-.46,1.14-.77a6.71,6.71,0,0,0,1.17-1.1,6.56,6.56,0,0,0,.91-1.43"/><polygon class="cls-7" points="594 175.4 594.1 210.95 583.62 217 583.51 181.46 594 175.4"/><polygon class="cls-7" points="568.4 190.18 568.47 215.44 578.74 209.51 578.77 219.8 558.02 231.78 557.92 196.24 568.4 190.18"/><path class="cls-7" d="M552.23,259.41a6.75,6.75,0,0,1,.49,2.74,14.63,14.63,0,0,1-1,5.49,19.7,19.7,0,0,1-2.69,4.77,23.37,23.37,0,0,1-3.85,4,34,34,0,0,1-4.42,3.09l-14,8.09-.1-35.54,12.71-7.34a38.21,38.21,0,0,1,4-2,11.23,11.23,0,0,1,3.91-.95,3.88,3.88,0,0,1,3,1.15c.79.8,1.18,2.22,1.19,4.26a12.34,12.34,0,0,1-1.23,5.44,17.54,17.54,0,0,1-3.3,4.67v.15a6,6,0,0,1,2.15-.26,3.89,3.89,0,0,1,1.88.62A3.67,3.67,0,0,1,552.23,259.41ZM541.47,269a3.78,3.78,0,0,0,.76-2.27,1.18,1.18,0,0,0-.33-1,1.29,1.29,0,0,0-.81-.27,3.13,3.13,0,0,0-1,.22,7.57,7.57,0,0,0-1,.5l-2.66,1.53v4.82l3.1-1.79a6.12,6.12,0,0,0,2-1.78m-5.13-13.3v4.37l2.79-1.61a5.58,5.58,0,0,0,1.79-1.62,3.55,3.55,0,0,0,.69-2.17c0-.67-.25-1-.74-1.08a3.54,3.54,0,0,0-2,.63l-2.57,1.48"/><polygon class="cls-7" points="523.37 253.9 523.4 263.83 511.91 270.46 511.92 273.53 522.71 267.3 522.74 276.59 511.95 282.82 511.96 286.14 524.19 279.07 524.22 289.01 502.2 301.73 502.1 266.18 523.37 253.9"/><path class="cls-7" d="M551,200.25l.06,21.58a23.21,23.21,0,0,1-.92,6.45,26.29,26.29,0,0,1-2.77,6.35,30.15,30.15,0,0,1-4.55,5.79,30.8,30.8,0,0,1-6.35,4.83,18.63,18.63,0,0,1-6.32,2.48,7.05,7.05,0,0,1-4.49-.57A6,6,0,0,1,523,244a14.89,14.89,0,0,1-.89-5.4L522,217l10.4-6,.06,20.28c0,1.7.36,2.83,1.08,3.37s1.73.44,3-.32a7.62,7.62,0,0,0,3-3.18,9.76,9.76,0,0,0,1.06-4.61l-.06-20.28Z"/><polygon class="cls-7" points="490.43 272.92 490.5 298.17 500.77 292.24 500.8 302.54 480.05 314.52 479.95 278.97 490.43 272.92"/><path class="cls-7" d="M502.91,227a20.18,20.18,0,0,1,6.88-2.62,8,8,0,0,1,5.32.65l-6.05,11.89a3.69,3.69,0,0,0-2.28-.77,6.64,6.64,0,0,0-3.23,1.09,10.45,10.45,0,0,0-2.47,2,14.71,14.71,0,0,0-2.12,2.87,18,18,0,0,0-1.48,3.45,12.63,12.63,0,0,0-.55,3.68q0,3.72,1.69,5.09t5.41-.78a13.35,13.35,0,0,0,1.35-.91,6.07,6.07,0,0,0,1.09-1v-2.71l-5,2.87,0-9.38,14.2-8.2.06,19.43c-.74.92-1.57,1.86-2.52,2.83s-2,1.91-3,2.82-2.17,1.8-3.34,2.66a39.51,39.51,0,0,1-3.49,2.3,20.09,20.09,0,0,1-6.8,2.61,8.84,8.84,0,0,1-5.42-.62,7.8,7.8,0,0,1-3.63-3.81,16.08,16.08,0,0,1-1.33-7,28.21,28.21,0,0,1,1.29-8.48,36.27,36.27,0,0,1,8.89-14.87A30.47,30.47,0,0,1,502.91,227Z"/><polygon class="cls-7" points="476.71 280.84 476.74 290.77 465.25 297.41 465.26 300.47 476.05 294.24 476.08 303.53 465.28 309.76 465.29 313.08 477.53 306.01 477.56 315.95 455.54 328.67 455.44 293.12 476.71 280.84"/><polygon class="cls-7" points="480.84 240.74 480.87 250.67 469.38 257.3 469.39 260.37 480.18 254.14 480.2 263.43 469.42 269.66 469.43 272.98 481.65 265.91 481.68 275.86 459.66 288.57 459.56 253.02 480.84 240.74"/><path class="cls-7" d="M442.28,299.71a20,20,0,0,1,6.77-2.58,9,9,0,0,1,5.35.51L448,310.16a2.89,2.89,0,0,0-2.19-.72,6.73,6.73,0,0,0-2.93,1,11,11,0,0,0-2.44,1.93,13.42,13.42,0,0,0-2,2.68,14.79,14.79,0,0,0-1.33,3.2,13.25,13.25,0,0,0-.47,3.47,6.86,6.86,0,0,0,.52,2.84,3.54,3.54,0,0,0,1.36,1.61,3.07,3.07,0,0,0,2,.38,6.08,6.08,0,0,0,2.4-.86,11,11,0,0,0,3.08-2.63,15.51,15.51,0,0,0,2-3.18l6.4,5.1a35.58,35.58,0,0,1-5.14,6.82,30.74,30.74,0,0,1-6.95,5.44,18.17,18.17,0,0,1-6.57,2.44,8.76,8.76,0,0,1-5.37-.75,8.21,8.21,0,0,1-3.6-3.85,15.81,15.81,0,0,1-1.33-6.91,28.25,28.25,0,0,1,1.29-8.48,36.77,36.77,0,0,1,3.56-8,36,36,0,0,1,5.35-6.87A30.54,30.54,0,0,1,442.28,299.71Z"/><path class="cls-7" d="M447.23,281.31l7.89,9.88-11.95,6.9-6-9.28-.3.17,0,12.7-10.1,5.83-.1-35.54,13.33-7.7a26.41,26.41,0,0,1,4.52-2.09,8.12,8.12,0,0,1,4-.46,4.31,4.31,0,0,1,2.88,1.91,9,9,0,0,1,1.11,5,16.79,16.79,0,0,1-1.38,6.55A21.62,21.62,0,0,1,447.23,281.31Zm-5.17-4.58a3.88,3.88,0,0,0,.36-1.74,2.22,2.22,0,0,0-.3-1.34,1,1,0,0,0-.78-.38,2.71,2.71,0,0,0-1,.25,11.21,11.21,0,0,0-1,.53l-2.47,1.43,0,5.72,2-1.18a12.17,12.17,0,0,0,1.16-.77,6.59,6.59,0,0,0,1.16-1.09,6.43,6.43,0,0,0,.91-1.43"/></g></g><g id="rainbow_runway" data-name="rainbow runway"><polygon class="cls-8" points="641.95 90.18 396.74 231.55 387.83 226.4 633.04 85.04 641.95 90.18"/><polygon class="cls-9" points="650.86 95.32 405.65 236.69 396.74 231.55 641.95 90.18 650.86 95.32"/><polygon class="cls-10" points="659.77 100.47 414.56 241.83 405.65 236.69 650.86 95.32 659.77 100.47"/><polygon class="cls-11" points="668.68 105.61 423.47 246.98 414.56 241.83 659.77 100.47 668.68 105.61"/><polygon class="cls-12" points="677.59 110.75 432.38 252.12 423.47 246.98 668.68 105.61 677.59 110.75"/><polygon class="cls-13" points="686.49 115.9 441.29 257.26 432.38 252.12 677.59 110.75 686.49 115.9"/><polygon class="cls-14" points="427.42 234.4 427.65 265.14 426.87 265.58 420.99 262.19 420.82 238.22 379.31 238.12 373.42 234.72 374.19 234.28 427.42 234.4"/><polygon class="cls-15" points="434.03 230.59 434.25 261.32 427.65 265.14 427.42 234.4 374.19 234.28 380.8 230.46 434.03 230.59"/><polygon class="cls-16" points="440.63 226.78 440.86 257.5 434.25 261.32 434.03 230.59 380.8 230.46 387.41 226.65 440.63 226.78"/><polygon class="cls-17" points="420.82 238.22 420.99 262.19 414.33 258.34 414.21 242.03 385.96 241.96 379.31 238.12 420.82 238.22"/><polygon class="cls-18" points="414.21 242.03 414.33 258.34 385.96 241.96 414.21 242.03"/></g><g id="drag_queen" data-name="drag queen"><path class="cls-19" d="M420.69,154.92a9.65,9.65,0,0,1-1.68,3l-.67-.8a8.75,8.75,0,0,0,2-4.34c.54-2.87-1.9-5.83-3.08-7.35s-3.41-.24-3.56-.16h0c-.67,1.73-2.85,7-5.73,9.91.57.94,1.43,2.1,2.09,1.89a1.66,1.66,0,0,0,.61-.31,7.48,7.48,0,0,0,3.06,1.26c.47,0,1,3.47,1,3.47s-.29.2-.7.55c-.95.78-2.57,2.3-2.87,3.74h0c-7.15,5.74-17.19,10.93-26.19,8.68-15.74-3.94-6-12.86,2.28-14.85S404.54,148,404.54,148a53.11,53.11,0,0,1,4.95-5,3.13,3.13,0,0,1,4,.41,5,5,0,0,1,3.92,0,2.46,2.46,0,0,1,.86.69,12.33,12.33,0,0,1,2.29,5.05A12.51,12.51,0,0,1,420.69,154.92Z"/><path class="cls-20" d="M408,155.16a7.84,7.84,0,0,1-2,1.52"/><path class="cls-20" d="M413.92,144.68s-.07.2-.21.56"/><path class="cls-20" d="M410.67,156.74a1.32,1.32,0,0,0,.44-.59"/><path class="cls-20" d="M413.92,170.1s-.42.92-1,2.17"/><path class="cls-21" d="M433.05,151.84l-4.91,11.34a16.7,16.7,0,0,1,1.19,2.07c-2.89,1.39-13,5.6-15.1-2.16a7.34,7.34,0,0,1-.22-1,.17.17,0,0,1,0-.07c.41-.35.7-.55.7-.55s-.5-3.47-1-3.47a7.48,7.48,0,0,1-3.06-1.26,1.66,1.66,0,0,1-.61.31c-.66.21-1.52-1-2.09-1.89,2.88-2.92,5.06-8.18,5.73-9.91h0c.15-.08,2.43-1.32,3.56.16s3.62,4.48,3.08,7.35a8.75,8.75,0,0,1-2,4.34l.67.8,1.42,1.7s2.64-1.05,4.36,0l3.75-7.29-7.85-2.94-.1-.21a12.33,12.33,0,0,0-2.29-5.05v0c.43.15,13.89,5.24,14.42,5.68S433.1,151.71,433.05,151.84Z"/><path class="cls-1" d="M430.46,183.85l-6.24,7.81-.76.13-7.92-6.93,0-6.84-2.61-5.75c-1.11,2.42-2.8,6.07-3.15,6.75-.53,1-10.14,13.66-10.73,14.15-1.61,1.33-.4-1.8-.69-2.45-1.87-.15-5.57.8-5.47.21a4.38,4.38,0,0,1,1.2-1.1c.51-.4,1.14-.84,1.77-1.28h0c1.46-1,2.91-2,2.91-2L406,177s4.79-9.6,5.13-11.25h0c.3-1.44,1.92-3,2.87-3.74a.17.17,0,0,0,0,.07,7.34,7.34,0,0,0,.22,1c1.14,4.18,4.59,4.89,8,4.44a25.37,25.37,0,0,0,7.12-2.28,5.45,5.45,0,0,1,.6,2,11.92,11.92,0,0,1-.76,3.94S430.26,183.76,430.46,183.85Z"/><path class="cls-21" d="M423.46,191.79c-1.46,2.66-5.2,13-8.76,15.81-.12.28-.32.72-.58,1.27h0c-1.33,2.74-4.29,8.32-6.69,12.79-2,3.68-3.56,6.6-3.56,6.6s.76,2.77,1,3.16-1.2,1.74-2.77.27-3.34-3.12-2.38-4.3a31.79,31.79,0,0,0,2.15-4.21c2.6-5.62,6.65-15,8.66-17.39,0,0,.39-1.59.89-3.83h0c1-4.36,2.49-11.17,2.55-13.32.08-3.26,1.61-3.78,1.61-3.78Z"/><path class="cls-22" d="M428.33,197.29A163.77,163.77,0,0,1,417.27,215c-2.33,3.22-5.93,5.32-9.85,6.71,2.4-4.47,5.36-10,6.69-12.79h0c.26-.55.46-1,.58-1.27,3.56-2.84,7.3-13.15,8.76-15.81l.76-.13C425,192.65,426.67,194.87,428.33,197.29Z"/><path class="cls-22" d="M415.54,184.86s-1.53.52-1.61,3.78c-.06,2.15-1.54,9-2.55,13.32h0c-.5,2.24-.89,3.83-.89,3.83-2,2.42-6.06,11.77-8.66,17.39a94.18,94.18,0,0,1-14.18,1.38c-4.05.3-12.25-.17-16.22-4s9.51-11.08,15.8-13.59,19-17.29,22.54-22.56,3.15-12.14,3.15-12.14l2.61,5.75Z"/><path class="cls-21" d="M440.93,230.52c-1.07.29-4.2-2.2-4.64-3.23s-3-18.72-3.68-22.48a37.23,37.23,0,0,0-4.28-7.52c-1.66-2.42-3.32-4.64-4.11-5.63l6.24-7.81c.08,0,1,2,2.05,4.74,1.79,4.44,4.17,10.93,4.69,14.64,1.3,2.54,3.24,23.61,3.24,23.61a12,12,0,0,1,.47,1.19h0C441.27,229,441.59,230.34,440.93,230.52Z"/><line class="cls-20" x1="418.29" y1="144.08" x2="418.28" y2="144.07"/><line class="cls-20" x1="394.07" y1="189.83" x2="397.26" y2="189.37"/><path class="cls-20" d="M395.87,188.55c.15,0,1.23-.15,1.23-.15"/><path class="cls-19" d="M404.29,238.07a9.69,9.69,0,0,1-4.15-3.61,15,15,0,0,1-1.47-2.66c-.12-.27-.18-.43-.18-.43a3,3,0,0,1,1.18-4c-1,1.18.82,2.82,2.38,4.3s3,.12,2.77-.27-1-3.16-1-3.16l3.84,7.89s.73,2.61-3.41,1.91"/><path class="cls-19" d="M442.36,236.42a10.57,10.57,0,0,1-5.56-3.58,15,15,0,0,1-1.43-1.88l-.05-.09c-.2-.36-.79-1.74,1-3.58.44,1,3.57,3.52,4.64,3.23.66-.18.34-1.48,0-2.48l4.42,5.83S446.56,236.3,442.36,236.42Z"/><path class="cls-19" d="M400.14,234.46V236a.76.76,0,0,1-.74.76.75.75,0,0,1-.73-.76V231.8A15,15,0,0,0,400.14,234.46Z"/><path class="cls-19" d="M436.8,232.84V235a.76.76,0,0,1-.75.76.75.75,0,0,1-.73-.76v-4.13l.05.09A15,15,0,0,0,436.8,232.84Z"/><path class="cls-23" d="M420.68,164.87a4.3,4.3,0,0,1,2.16,2.56"/></g><g id="sparkles"><path class="cls-24" d="M434.36,137.63a8.56,8.56,0,0,0-3.9,6.72h0c0-2.47-1.74-3.46-3.9-2.22h0a8.56,8.56,0,0,0,3.9-6.71h0c0,2.46,1.74,3.45,3.9,2.21Z"/><path class="cls-24" d="M694.47,138.75a8.59,8.59,0,0,0-3.9,6.72h0c0-2.47-1.74-3.46-3.89-2.22h0a8.58,8.58,0,0,0,3.89-6.72h0c0,2.47,1.75,3.46,3.9,2.22Z"/><path class="cls-24" d="M430.5,319a8.58,8.58,0,0,0-3.89,6.72h0c0-2.47-1.75-3.46-3.9-2.22h0a8.59,8.59,0,0,0,3.9-6.72h0c0,2.47,1.74,3.46,3.89,2.22Z"/><path class="cls-24" d="M457,264.77a8.57,8.57,0,0,0-3.9,6.71h0c0-2.47-1.74-3.46-3.89-2.22h0a8.56,8.56,0,0,0,3.89-6.71h0c0,2.47,1.75,3.46,3.9,2.22Z"/><path class="cls-24" d="M549.42,194a8.6,8.6,0,0,0-3.9,6.72h0c0-2.47-1.74-3.46-3.89-2.22h0a8.58,8.58,0,0,0,3.89-6.71h0c0,2.46,1.75,3.46,3.9,2.21Z"/><path class="cls-24" d="M399.63,145.26a8.57,8.57,0,0,0-3.9,6.71h0c0-2.47-1.74-3.46-3.89-2.22h0a8.56,8.56,0,0,0,3.89-6.71h0c0,2.47,1.75,3.46,3.9,2.22Z"/><path class="cls-24" d="M681.48,119.69a8.58,8.58,0,0,0-3.89,6.71h0c0-2.46-1.75-3.46-3.9-2.21h0a8.6,8.6,0,0,0,3.9-6.72h0c0,2.47,1.74,3.46,3.89,2.22Z"/><path class="cls-24" d="M686.68,154.07a8.56,8.56,0,0,0-3.9,6.72h0c0-2.47-1.74-3.46-3.9-2.22h0a8.56,8.56,0,0,0,3.9-6.72h0c0,2.47,1.74,3.46,3.9,2.22Z"/><path class="cls-24" d="M395.73,172.32a8.58,8.58,0,0,0-3.89,6.72h0c0-2.47-1.75-3.46-3.9-2.22h0a8.59,8.59,0,0,0,3.9-6.72h0c0,2.47,1.74,3.46,3.89,2.22Z"/><path class="cls-24" d="M442.85,205.28A8.59,8.59,0,0,0,439,212h0c0-2.47-1.75-3.46-3.9-2.22h0a8.59,8.59,0,0,0,3.9-6.71h0c0,2.46,1.74,3.46,3.89,2.21Z"/></g></g></g></svg>