<svg width="334" height="430" viewBox="0 0 334 430" fill="none" xmlns="http://www.w3.org/2000/svg">
<path d="M59.0811 4C53.5124 28.1297 59.0811 118.616 124.638 118.616C172.769 118.616 193.405 94.9503 197.362 81.4934C201.32 68.0364 197.362 50.8672 180.193 45.2989C163.024 39.7305 110.125 31.3779 129.15 177.084" stroke="#29384A" stroke-width="29.6981"/>
<path d="M241.35 251.329C241.021 240.147 240.253 228.807 239.139 217.455H17.3315C8.51505 306.549 20.5799 415.132 126.379 415.132C184.057 415.132 215.256 385.894 230.126 343.207M241.35 251.329C260.253 250.092 296.656 245.392 308.732 256.433C324.973 271.282 318.083 293.889 307.804 309.797C288.315 339.959 254.441 340.423 230.126 343.207M241.35 251.329C242.33 284.637 239.413 316.545 230.126 343.207" stroke="#29384A" stroke-width="29.6981"/>
</svg>
