<svg width="44" height="44" viewBox="0 0 44 44" fill="none" xmlns="http://www.w3.org/2000/svg">
<circle cx="22" cy="22" r="22" fill="#EAF4FF"/>
<path d="M16.5023 7C16.123 8.64334 16.5023 14.8059 20.967 14.8059C24.2449 14.8059 25.6503 13.1941 25.9199 12.2777C26.1894 11.3612 25.9199 10.1919 24.7506 9.81264C23.5813 9.43341 19.9786 8.86456 21.2743 18.7878" stroke="#29384A" stroke-width="2.02257"/>
<path d="M28.9155 23.8441C28.8931 23.0825 28.8407 22.3102 28.7649 21.5371H13.6588C13.0583 27.6048 13.88 34.9999 21.0854 34.9999C25.0136 34.9999 27.1384 33.0086 28.151 30.1014M28.9155 23.8441C30.2029 23.7598 32.6821 23.4398 33.5045 24.1917C34.6106 25.203 34.1414 26.7426 33.4413 27.826C32.114 29.8802 29.807 29.9118 28.151 30.1014M28.9155 23.8441C28.9822 26.1125 28.7836 28.2856 28.151 30.1014" stroke="#29384A" stroke-width="2.02257"/>
</svg>
