<svg width="153" height="86" viewBox="0 0 153 86" fill="none" xmlns="http://www.w3.org/2000/svg">
<path fill-rule="evenodd" clip-rule="evenodd" d="M96.0039 52.9151C95.6965 50.1042 95.1984 45.8256 94.8228 43.9072L98.8266 42.9062C99.2326 44.9799 99.9399 49.5965 100.26 52.552C100.689 56.5063 100.958 60.7246 100.805 64.8777C100.694 66.2841 100.422 67.9485 99.6794 70.4708C100.085 70.6939 100.485 70.9341 100.879 71.1918C104.641 73.6558 107.582 77.3607 108.97 83.1487L105.166 85.3986C104.018 80.6099 101.341 76.5994 98.539 74.7644C98.341 74.6348 98.1404 74.5107 97.9373 74.3921C95.4994 78.407 91.6037 81.5692 87.8174 83.1487C85.6987 84.0325 83.7603 84.4991 81.6792 84.1739C79.4966 83.8329 77.5788 82.6123 76.5356 80.3557C75.7659 78.6908 75.6856 76.9772 76.2276 75.3821C76.7538 73.8339 77.8135 72.5428 79.0889 71.5251C81.6205 69.5052 85.0153 68.2721 88.9096 68.0837C91.1082 67.9774 93.4299 68.2 95.7011 68.8446C96.2075 66.9392 96.3827 66.3566 96.537 64.7206C96.6602 63.415 96.5863 62.767 96.5692 61.6295C95.8726 62.0755 95.047 62.3948 94.0727 62.51C91.8769 62.7697 90.0668 62.0777 88.7279 60.7174C87.4906 59.4603 86.7821 57.7635 86.3292 56.1679C85.8678 54.5422 85.6077 52.7802 85.4152 51.2088C85.3464 50.6469 85.2873 50.122 85.232 49.631C85.1246 48.6774 85.0317 47.0511 84.91 46.3318L89.0841 45.3085C89.2254 46.1445 89.3781 48.2819 89.4944 49.3118C89.5468 49.7758 89.5993 50.2407 89.6543 50.6897C89.8413 52.2171 90.0705 53.7082 90.4377 55.0019C90.8134 56.3257 91.2726 57.2147 91.7717 57.7217C92.1692 58.1256 92.664 58.3761 93.5711 58.2688C94.2656 58.1867 94.8693 57.7155 95.3609 56.5338C95.8413 55.3789 96.0146 53.9466 96.0039 52.9151ZM93.8963 72.7861C92.3146 72.4072 90.6912 72.2732 89.116 72.3494C85.8909 72.5055 83.4239 73.5299 81.7525 74.8634C80.9265 75.5224 80.4664 76.182 80.2712 76.7563C80.092 77.2837 80.0889 77.8645 80.4121 78.5636C80.788 79.3766 81.3981 79.8075 82.3385 79.9544C83.3804 80.1172 84.4927 79.9082 86.1732 79.2072C88.9918 78.0314 91.9424 75.6922 93.8963 72.7861Z" fill="#29384A"/>
<path fill-rule="evenodd" clip-rule="evenodd" d="M50.4149 47.0435L52.4498 47.0435C55.0323 47.0435 58.1954 47.2121 60.7203 48.3029C62.024 48.8661 63.2697 49.7213 64.1488 51.026C65.0413 52.3506 65.4309 53.9534 65.325 55.7755C65.2121 57.7175 64.4714 59.285 63.2437 60.4292C62.0672 61.5258 60.5924 62.0963 59.2034 62.3939C57.4482 62.77 55.5594 62.7649 53.9548 62.6412L53.7176 66.7287L49.5137 67.1958L49.7827 60.1605L50.4149 47.0435ZM54.1446 58.3714C55.5168 58.4857 57.0187 58.4944 58.3086 58.218C59.255 58.0152 59.9155 57.6932 60.332 57.305C60.6974 56.9645 61.0076 56.4551 61.0615 55.5276C61.1224 54.4804 60.8948 53.8394 60.607 53.4124C60.3059 52.9654 59.8082 52.561 59.0266 52.2234C57.8281 51.7057 56.2426 51.4598 54.4823 51.3644L54.1446 58.3714Z" fill="#29384A"/>
<path fill-rule="evenodd" clip-rule="evenodd" d="M68.2316 46.1094L70.2665 46.1094C72.849 46.1094 76.0121 46.2781 78.537 47.3688C79.8408 47.932 81.0864 48.7872 81.9655 50.0919C82.858 51.4165 83.2477 53.0193 83.1417 54.8414C83.0288 56.7834 82.2881 58.3509 81.0605 59.4951C79.8839 60.5917 78.4092 61.1622 77.0202 61.4598C75.2649 61.836 73.3762 61.8309 71.7715 61.7071L71.5344 66.7288L67.2637 67.1959L67.5994 59.2265L68.2316 46.1094ZM71.9613 57.4373C73.3335 57.5516 74.8355 57.5603 76.1253 57.2839C77.0717 57.0811 77.7322 56.7591 78.1487 56.3709C78.5141 56.0304 78.8243 55.521 78.8782 54.5936C78.9391 53.5463 78.7115 52.9054 78.4238 52.4783C78.1226 52.0313 77.6249 51.627 76.8434 51.2893C75.6449 50.7716 74.0593 50.5257 72.299 50.4303L71.9613 57.4373Z" fill="#29384A"/>
<path fill-rule="evenodd" clip-rule="evenodd" d="M34.4907 57.9773C36.4446 57.9603 39.7209 57.9138 44.6972 57.7862L46.7778 57.7328V55.6515C46.7778 50.2615 43.0137 46.8742 38.863 46.7114C36.8169 46.6311 34.7302 47.3465 33.1071 48.9195C31.4799 50.4964 30.4502 52.8021 30.2347 55.693C29.8703 60.5817 31.4841 63.7341 34.1028 65.4933C36.5191 67.1165 39.3739 67.2553 40.9864 67.1942L41.9732 63.0585C40.6386 63.0585 37.7649 62.8085 36.4843 61.9483C35.6213 61.3685 34.6873 60.2868 34.4907 57.9773ZM36.0793 51.9863C35.6705 52.3824 35.2783 52.9401 34.9825 53.7017C36.5817 53.6853 38.9219 53.6503 42.1556 53.5761C41.5018 51.8529 40.0423 51.0316 38.6957 50.9788C37.7642 50.9423 36.8274 51.2613 36.0793 51.9863Z" fill="#29384A"/>
<path fill-rule="evenodd" clip-rule="evenodd" d="M63.4479 29.6237L59.7893 20.2849H64.357L72.8492 41.6471L68.8831 43.2312L67.4698 39.6928C66.9224 40.6641 66.1457 41.5351 65.0394 42.1933C62.804 43.593 59.8201 43.7947 57.434 43.0844C55.0218 42.3664 52.4593 40.3994 52.6529 36.9801C52.7662 34.979 53.4985 33.3479 54.7281 32.1355C55.9168 30.9635 57.425 30.3241 58.8843 29.982C60.3721 29.6332 61.9624 29.5582 63.4479 29.6237ZM64.5367 33.9883C62.9787 33.8206 61.2805 33.8068 59.859 34.14C58.8773 34.3701 58.1781 34.7313 57.7266 35.1765C57.3161 35.5813 56.9755 36.1841 56.9168 37.2215C56.8799 37.8726 57.2534 38.5748 58.6524 38.9912C60.067 39.4123 61.7538 39.2184 62.7852 38.566L62.8143 38.5476L62.8439 38.5302C63.4574 38.1692 63.8765 37.5967 64.1642 36.5402C64.3594 35.8236 64.4675 34.9828 64.5367 33.9883Z" fill="#29384A"/>
<path d="M52.5759 29.9312C51.3816 31.2623 49.6954 32.1627 47.5104 32.1627C45.3294 32.1627 43.6363 31.2667 42.4196 29.9606C41.2593 28.715 40.577 27.1529 40.1609 25.7723C39.7387 24.3713 39.5446 23.0009 39.4533 22.0014C39.4072 21.4962 39.3861 21.0726 39.3767 20.7703C39.3719 20.6189 39.3701 20.4971 39.3694 20.4099C39.3691 20.3663 39.3691 20.3312 39.3692 20.3053L39.3694 20.2734L39.3695 20.2627L39.3696 20.2571C39.3696 20.2563 39.3696 20.2556 41.5047 20.2849C43.6399 20.3141 43.6399 20.3135 43.6399 20.3129L43.6399 20.3119L43.6399 20.3106L43.6399 20.3204C43.6398 20.3313 43.6398 20.351 43.64 20.3787C43.6404 20.4341 43.6417 20.5217 43.6453 20.6367C43.6525 20.8672 43.669 21.2048 43.7063 21.6129C43.7818 22.4402 43.9381 23.5053 44.2499 24.54C44.5679 25.595 45.0032 26.4685 45.5446 27.0497C46.0295 27.5702 46.6218 27.8921 47.5104 27.8921C48.3949 27.8921 48.9525 27.5747 49.3972 27.0791C49.9032 26.5152 50.3044 25.6573 50.5855 24.6051C50.8607 23.575 50.9804 22.5125 51.0276 21.6855C51.0509 21.2776 51.0522 20.5153 51.0516 20.2849H53.1824H55.3207C55.3231 20.3721 55.3254 20.5458 55.3258 20.6972C55.3267 20.9996 55.3202 21.4233 55.2913 21.9288C55.2343 22.9285 55.087 24.3017 54.7116 25.7072C54.342 27.0906 53.709 28.6684 52.5759 29.9312Z" fill="#29384A"/>
<path fill-rule="evenodd" clip-rule="evenodd" d="M28.3161 22.2755C28.3346 21.4885 28.3516 20.923 28.3606 20.2849H32.6313C32.6212 20.9965 32.6027 21.6672 32.5835 22.4814C32.5586 23.5354 32.5321 24.6569 32.5197 25.798L36.0387 25.2485L37.5026 29.3601L32.5735 30.112C32.6142 31.0083 32.6777 31.8445 32.7715 32.5883C32.9366 33.8971 33.1661 34.6522 33.3481 34.9687C33.9994 36.1013 34.9324 36.8836 35.6544 36.9903C36.0219 37.0446 37.4629 36.8785 39.3043 33.5641L42.6407 35.9664C40.4783 39.8588 38.0491 41.6612 35.0301 41.2151C32.3656 40.8213 30.5294 38.6341 29.6458 37.0975C29.013 35.997 28.7098 34.5139 28.5344 33.1226C28.3498 31.6588 28.274 29.9881 28.2506 28.3224C28.2218 26.2761 28.2727 24.1176 28.3161 22.2755Z" fill="#29384A"/>
<path d="M73.4023 25.4897L77.4537 35.6326" stroke="#29384A" stroke-width="4.2707"/>
<circle cx="71.3346" cy="20.2848" r="2.13535" fill="#29384A"/>
<circle cx="90.6189" cy="29.0263" r="6.67296" stroke="#29384A" stroke-width="4.2707"/>
<path fill-rule="evenodd" clip-rule="evenodd" d="M11.3466 25.2243C11.2652 25.3443 11.1439 25.5882 11.1439 26.0904C11.1439 27.4738 11.5075 27.757 11.5638 27.8008L11.5649 27.8017C11.7332 27.933 12.1456 28.0923 13.1458 28.0923H19.6853C20.0598 28.0923 21.4874 28.1279 22.8958 28.82C23.6296 29.1805 24.4173 29.7484 25.0178 30.6328C25.6287 31.5326 25.9579 32.6316 25.9579 33.8978C25.9579 36.0411 25.3592 37.8324 23.8932 38.9762C22.5434 40.0293 20.8872 40.1703 19.6853 40.1703H10.8969L10.8502 40.1683C7.54884 40.0235 6.06582 41.0118 5.33835 41.8994C4.52451 42.8922 4.2707 45.7618 4.2707 46.8433C4.27069 47.8365 4.31665 48.487 4.53227 49.0555C4.71016 49.5244 5.06329 50.0842 5.96436 50.7001C6.37399 50.8771 6.76538 51.0326 7.13928 51.1687C7.13926 51.1653 7.13924 51.1618 7.13922 51.1584C7.13442 50.2767 7.12561 48.6588 7.59998 47.2357C7.87458 46.4119 8.35513 45.4978 9.21903 44.7917C10.1121 44.0617 11.2278 43.707 12.4784 43.707C15.2826 43.707 17.1638 44.9766 18.1598 46.7473C19.0541 48.3372 19.1193 50.1154 18.9168 51.229C18.4417 53.842 15.8001 56.0356 11.6783 56.1948L11.9052 60.3271L22.9325 58.0254L21.6984 46.0615L25.8911 45.442L28.3488 68.9119L24.1561 69.7316L23.373 62.2962L12.1421 64.6405L12.6786 73.8688L8.41114 74.5865L7.37356 55.6915C6.32817 55.4232 5.22718 55.043 4.0769 54.5361L3.91897 54.4665L3.77427 54.3724C2.10826 53.2895 1.08655 52.0131 0.539182 50.5701C0.0207724 49.2034 -1.27271e-06 47.852 0 46.8433C2.03648e-06 45.2556 0.3469 41.252 2.03543 39.192C3.80371 37.0347 6.7097 35.7227 10.9892 35.8996H19.6853C20.6855 35.8996 21.0979 35.7404 21.2662 35.6091L21.2673 35.6082C21.3236 35.5644 21.6872 35.2812 21.6872 33.8978C21.6872 33.3955 21.5659 33.1516 21.4845 33.0317C21.3927 32.8964 21.2462 32.7678 21.0124 32.6529C20.4857 32.3941 19.8446 32.363 19.6853 32.363H13.1458C11.9439 32.363 10.2877 32.2219 8.93787 31.1688C7.47194 30.0251 6.87322 28.2337 6.87322 26.0904C6.87322 24.8243 7.20239 23.7252 7.81329 22.8255C8.41376 21.941 9.20151 21.3732 9.93528 21.0126C11.3437 20.3205 12.7713 20.2849 13.1458 20.2849H23.8225V24.5556H13.1458C12.9865 24.5556 12.3454 24.5867 11.8187 24.8455C11.5849 24.9604 11.4384 25.0891 11.3466 25.2243ZM11.4473 51.9885C13.6945 51.8964 14.5107 50.741 14.6802 50.5011C14.7077 50.4621 14.7182 50.4473 14.715 50.4651C14.7794 50.1107 14.7444 49.3866 14.4376 48.8411C14.3043 48.6041 14.1286 48.4139 13.881 48.2727C13.631 48.1301 13.2026 47.9777 12.4784 47.9777C12.0683 47.9777 11.9464 48.0781 11.9229 48.0974L11.9217 48.0984C11.8723 48.1388 11.7606 48.259 11.6515 48.5862C11.4102 49.3102 11.4105 50.2537 11.4107 51.2745C11.4107 51.2904 11.4107 51.3063 11.4108 51.3222L11.4473 51.9885Z" fill="#29384A"/>
<path d="M112.706 1C111.906 4.46994 112.706 17.4822 122.134 17.4822C129.055 17.4822 132.023 14.079 132.592 12.1438C133.161 10.2087 132.592 7.73969 130.123 6.93894C127.654 6.13818 120.047 4.93705 122.783 25.8902" stroke="#29384A" stroke-width="4.2707"/>
<path d="M138.917 36.5671C138.87 34.959 138.759 33.3283 138.599 31.6958H106.702C105.435 44.5079 107.17 60.1226 122.384 60.1226C130.678 60.1226 135.165 55.9181 137.303 49.7795M138.917 36.5671C141.636 36.3891 146.87 35.7134 148.607 37.3011C150.943 39.4364 149.952 42.6873 148.474 44.975C145.671 49.3124 140.8 49.3792 137.303 49.7795M138.917 36.5671C139.058 41.3569 138.639 45.9454 137.303 49.7795" stroke="#29384A" stroke-width="4.2707"/>
</svg>
