<?xml version="1.0" encoding="utf-8"?>
<!-- Generator: Adobe Illustrator 26.0.3, SVG Export Plug-In . SVG Version: 6.00 Build 0)  -->
<svg version="1.1" id="Layer_1" xmlns="http://www.w3.org/2000/svg" xmlns:xlink="http://www.w3.org/1999/xlink" x="0px" y="0px"
	 viewBox="0 0 1825 1825" style="enable-background:new 0 0 1825 1825;" xml:space="preserve">
<style type="text/css">
	.st0{fill-rule:evenodd;clip-rule:evenodd;fill:url(#SVGID_1_);}
</style>
<linearGradient id="SVGID_1_" gradientUnits="userSpaceOnUse" x1="492.2267" y1="1506.6218" x2="492.2267" y2="1506.167" gradientTransform="matrix(1800.3628 0 0 -2465.7146 -885274.1875 3714916.5)">
	<stop  offset="0" style="stop-color:#D378E5"/>
	<stop  offset="1" style="stop-color:#7526C2"/>
</linearGradient>
<path class="st0" d="M258.7,1530.9v-860c0-361.1,292.7-653.8,653.8-653.8s653.8,292.7,653.8,653.8c0,356.3-285,646-639.5,653.6v0.2
	c-102,0-184.8-82.7-184.8-184.8c0-101.1,81.2-183.2,181.9-184.7v-0.2c151.7-6,272.9-130.8,272.9-284c0-157-127.3-284.2-284.2-284.2
	S628.3,513.9,628.3,670.9v952.2c0,102-82.7,184.8-184.8,184.8c-38,0.1-75.1-11.7-106.2-33.5c53.1-15.5,92-64.6,92-122.8
	c0-70.6-57.3-127.9-127.9-127.9C286.4,1523.6,272.1,1526.2,258.7,1530.9z M926.7,1267.8c70.6,0,127.9-57.3,127.9-127.9
	S997.4,1012,926.7,1012s-127.9,57.3-127.9,127.9S856.1,1267.8,926.7,1267.8z"/>
</svg>
